<svg width="228" height="70" viewBox="0 0 228 70" fill="none" xmlns="http://www.w3.org/2000/svg">
<path d="M197.336 47.2369C197.436 46.3258 197.494 45.4056 197.494 44.4739C197.494 30.368 185.805 18.9397 171.383 18.9397C156.965 18.9397 145.277 30.368 145.277 44.4739C145.277 58.5752 156.965 69.9992 171.383 69.9992C182.351 69.9992 191.726 63.3997 195.602 54.0231L184.348 52.0513C181.855 56.6135 177.137 59.6866 171.745 59.6866C164.588 59.6866 158.661 54.3034 157.469 47.2366L197.336 47.2369ZM171.746 29.537C177.857 29.537 183.077 33.4727 185.208 39.044H158.267C160.392 33.473 165.623 29.537 171.746 29.537Z" fill="#0052CD"/>
<path d="M138.26 20.0095H124.926V69.0827H138.26V20.0095Z" fill="#0052CD"/>
<path d="M131.599 0C127.483 0 124.16 3.34121 124.16 7.4401C124.16 11.5327 127.483 14.865 131.599 14.865C135.699 14.865 139.029 11.5327 139.029 7.4401C139.029 3.34121 135.699 0 131.599 0Z" fill="#0052CD"/>
<path d="M43.3161 4.27515V30.6926H14.5752V4.27515H0V69.0384H14.5752V42.6197H43.3161V69.0384H57.9033V4.27515H43.3161Z" fill="#0052CD"/>
<path d="M103.499 20.0324V22.6655C99.6232 20.3173 95.0817 18.9685 90.2154 18.9685C76.08 18.9685 64.6152 30.3897 64.6152 44.4844C64.6152 58.5762 76.08 70.0002 90.2154 70.0002C94.9553 70.0002 99.3835 68.7128 103.191 66.4827V69.0393H116.201V20.0324H103.499ZM90.8656 59.2422C82.6159 59.2422 75.9469 52.6409 75.9469 44.4901C75.9469 36.3325 82.6156 29.7263 90.8656 29.7263C99.1132 29.7263 105.793 36.3325 105.793 44.4901C105.793 52.6409 99.1129 59.2422 90.8656 59.2422Z" fill="#0052CD"/>
<path d="M225.066 15.4519C212.787 17.5939 203.452 28.2766 203.309 41.1607V69.0823H216.076L216.082 40.6358C216.082 34.1237 220.971 28.7494 227.272 27.9782L225.066 15.4519Z" fill="#0052CD"/>
</svg>
