<svg width="552" height="70" viewBox="0 0 552 70" fill="none" xmlns="http://www.w3.org/2000/svg">
<g clip-path="url(#clip0_3_486)">
<path d="M40.1213 6.98691C38.3029 6.63695 36.4557 6.458 34.604 6.45239C18.9804 6.45239 6.23011 18.6196 5.22656 33.9917C7.01498 34.3287 8.85516 34.5231 10.7439 34.5231C26.3686 34.5241 39.1167 22.3601 40.1213 6.98691ZM10.745 38.2679C8.87418 38.2679 7.04879 38.4633 5.27304 38.7939C6.71814 53.7288 19.2941 65.4037 34.605 65.4037C36.4758 65.4037 38.3002 65.2093 40.0738 64.8776C38.6319 49.9438 26.0548 38.2679 10.745 38.2679ZM64.0796 35.9291C64.0796 22.7489 55.4259 11.5948 43.4943 7.82461V64.0336C55.4259 60.2613 64.0796 49.1082 64.0796 35.9291Z" fill="#0052CD"/>
<path d="M432.545 59.9021C432.545 66.2128 439.466 67.6389 439.466 67.6389V68.6562H412.795V67.6389C412.795 67.6389 419.717 66.2117 419.717 59.9021V12.4683C419.717 12.4683 418.902 6.5643 412.998 4.93539V3.30754C412.998 3.30754 427.455 2.08745 432.546 0.0507812V59.9021H432.545ZM175.88 59.9021C175.88 66.2128 182.803 67.6389 182.803 67.6389V68.6562H156.135V67.6389C156.135 67.6389 163.057 66.2117 163.057 59.9021V12.4683C163.057 12.4683 162.241 6.5643 156.337 4.93539V3.30754C156.337 3.30754 170.794 2.08745 175.881 0.0507812V59.9021H175.88ZM149.566 55.2224C149.566 55.2224 146.309 62.5525 135.926 62.5525C125.543 62.5525 121.472 61.1254 121.472 55.628V38.3238H136.537C136.537 38.3238 141.425 37.1026 144.069 43.2095H145.697V27.3302H144.069C141.425 33.435 136.537 32.2159 136.537 32.2159H121.472V10.0239H140.201C140.201 10.0239 145.901 10.0239 147.328 15.1145H149.769V4.122L100.098 3.91918V4.93539C100.098 4.93539 107.018 6.36254 107.018 12.6743V59.9021C107.018 66.2128 100.098 67.6389 100.098 67.6389V68.6562H150.992V55.2224H149.566ZM339.963 32.6385L339.914 23.8707L320.778 26.108V27.9408C327.087 27.9408 327.291 33.8448 327.291 33.8448V59.9021C327.291 66.2128 320.372 67.6389 320.372 67.6389V68.6562H347.037V67.6389C347.037 67.6389 340.118 66.2117 340.118 59.9021L340.02 42.6992C343.283 33.9336 354.163 35.272 354.163 35.272L358.235 23.259C346.917 20.9667 341.924 28.4331 339.963 32.6385ZM198.833 44.6366H230.387C230.387 44.6366 233.033 23.0552 209.012 23.0552C183.564 23.0552 184.379 46.0616 184.379 46.0616C184.379 46.0616 181.527 69.6755 208.197 69.8784C208.197 69.8784 220.617 71.0985 228.555 62.1437V56.4436C228.555 56.4436 222.243 62.7532 210.435 61.1264C210.435 61.1254 197.204 59.9021 198.833 44.6366ZM250.54 44.6366C248.913 59.9021 262.144 61.1254 262.144 61.1254C273.952 62.7522 280.673 55.628 280.673 55.628V61.3282C271.92 71.3045 259.905 69.8784 259.905 69.8784C233.237 69.6766 236.085 46.0616 236.085 46.0616C236.085 46.0616 235.271 23.0552 260.721 23.0552C260.721 23.0552 273.549 24.0735 278.231 25.2936V38.5266H277.007C277.007 38.5266 274.548 27.8563 261.331 28.5514C249.727 29.163 250.54 44.6366 250.54 44.6366Z" fill="#0052CD"/>
<path d="M199.035 39.1404H217.155C217.155 39.1404 217.968 27.5342 207.992 27.5342C199.648 27.5342 199.035 39.1404 199.035 39.1404Z" fill="#0052CD"/>
<path d="M301.235 55.8309V30.5892H310.801C310.801 30.5892 317.116 30.8966 316.299 24.176H301.235V10.8384L281.486 30.5892H288.205V54.2031C288.205 70.2862 300.827 69.6766 300.827 69.6766C311.616 70.0802 316.299 64.7899 316.299 64.7899V60.1071C300.624 65.8093 301.235 55.8309 301.235 55.8309ZM384.501 23.0552C364.75 23.0552 359.05 33.547 359.05 46.3638C359.05 59.1838 362.715 69.6756 384.501 69.6756C405.06 69.6756 409.946 59.1827 409.946 46.3638C409.946 33.547 405.669 23.0552 384.501 23.0552Z" fill="#0052CD"/>
<path d="M384.501 28.7554C377.98 28.7554 372.693 36.5946 372.693 46.2667C372.693 55.9355 377.98 63.7716 384.501 63.7716C391.021 63.7716 396.306 55.9355 396.306 46.2667C396.306 36.5946 391.021 28.7554 384.501 28.7554Z" fill="#0052CD"/>
<path d="M541.255 58.2742L528.696 42.1816C534.063 35.6523 538.608 30.1824 538.608 30.1824C538.608 30.1824 543.697 26.1091 548.178 25.9063V23.8707H528.84V25.7003C528.84 25.7003 532.705 26.313 529.855 30.1814C529.131 31.1638 527.097 33.6262 524.463 36.754L520.287 31.4025C520.287 31.4025 518.047 27.3313 523.544 25.7013V23.8717H493.617V25.9073C493.617 25.9073 499.931 27.738 503.187 31.8134C504.782 33.8089 510.091 40.9784 515.091 47.7814C509.188 54.6794 503.798 60.9225 503.798 60.9225C503.798 60.9225 498.915 66.4156 494.232 66.6227C489.956 65.6054 489.752 60.1091 489.752 60.1091V23.259L469.19 25.7013V27.5341C475.704 28.7563 476.113 33.8459 476.113 33.8459V57.2559C473.874 59.6982 467.766 60.7197 467.766 60.7197C457.79 60.1081 458.809 51.7607 458.809 51.7607V23.4619L439.875 25.7003V27.5331C445.984 28.7553 445.78 34.8621 445.78 34.8621V53.7953C445.78 69.8805 459.624 69.6755 459.624 69.6755C470.819 69.6755 476.113 64.1782 476.113 64.1782C477.131 68.8611 479.37 68.4544 479.37 68.4544H514.384L513.977 66.6205C513.977 66.6205 510.517 66.011 511.533 63.7715C511.883 63.0036 515.187 58.7992 519.376 53.6115C522.688 58.1295 525.173 61.5342 525.173 61.5342C525.173 61.5342 528.022 64.7899 522.527 65.8093V68.4554H551.234V66.0121C551.232 66.011 547.158 66.4167 541.255 58.2742Z" fill="#0052CD"/>
</g>
<defs>
<clipPath id="clip0_3_486">
<rect width="550.314" height="70" fill="white" transform="translate(0.917969)"/>
</clipPath>
</defs>
</svg>
