<svg width="206" height="70" viewBox="0 0 206 70" fill="none" xmlns="http://www.w3.org/2000/svg">
<mask id="mask0_3_469" style="mask-type:luminance" maskUnits="userSpaceOnUse" x="0" y="0" width="206" height="70">
<path d="M205.1 0H0.271484V70H205.1V0Z" fill="white"/>
</mask>
<g mask="url(#mask0_3_469)">
<path fill-rule="evenodd" clip-rule="evenodd" d="M199.547 23.8822V22.9704C199.683 23.0113 199.819 23.0113 199.969 23.0113C200.677 23.0113 200.99 22.535 201.439 21.6096L198.663 16.0031H199.847L201.983 20.4938H202.01L203.956 16.0031H205.113L202.378 22.0043C201.752 23.4059 201.044 23.9366 200.078 23.9366C199.928 23.923 199.711 23.9094 199.547 23.8822ZM194.88 16.9012H192.621V15.9895H198.431L198.105 16.9012H195.941V23.8414H194.88V16.9012ZM191.001 20.9156L190.267 18.8744C190.035 18.2076 189.926 17.8538 189.831 17.568H189.804C189.722 17.8538 189.586 18.2212 189.355 18.888L188.62 20.9292H191.001V20.9156ZM189.409 15.9759L186.416 23.8414H187.531L188.28 21.7865H191.328L192.09 23.8414H193.233L190.185 15.9759H189.409ZM177.951 16.0031H178.931L181.068 19.201C181.394 19.6773 181.598 19.9767 181.775 20.2897H181.802C181.979 19.9767 182.197 19.6229 182.496 19.1466L184.497 16.0031H185.477V23.8414H184.429V18.9969C184.429 18.6295 184.429 18.1532 184.442 17.7586H184.429C184.279 18.0579 184.007 18.4662 183.871 18.6839L182.061 21.5688H181.53L179.543 18.6295C179.38 18.3981 179.162 18.0851 179.013 17.7858H178.985C179.013 18.126 179.013 18.6431 179.013 18.9833V23.855H177.951V16.0031ZM169.582 16.0031H170.63V20.7387C170.63 21.283 170.63 21.6777 170.603 22.0995H170.63C170.889 21.7185 171.229 21.2286 171.692 20.6299L175.175 16.0031H176.196V23.8414H175.134V18.9289C175.134 18.3573 175.148 17.9899 175.162 17.6225H175.134C174.876 18.0035 174.536 18.4662 174.114 19.0377L170.48 23.8414H169.582V16.0031ZM161.526 23.8822V22.8888C161.635 22.916 161.717 22.916 161.771 22.916C162.111 22.916 162.452 22.7527 162.697 22.3309C163.418 21.0925 163.921 17.9082 164.071 16.0031H167.813V23.8414H166.752V16.8604H164.983C164.847 18.6431 164.302 21.6777 163.513 22.9704C163.105 23.6372 162.561 23.9094 161.867 23.9094C161.798 23.9094 161.635 23.8958 161.526 23.8822ZM155.688 16.0031H156.736V19.4732H157.512C158.723 19.4732 158.832 17.8674 159.349 16.7652C159.594 16.2481 159.975 15.9351 160.601 15.9351C160.778 15.9351 161.023 15.9623 161.186 16.0303V16.9829C161.036 16.9285 160.9 16.9149 160.778 16.9149C160.492 16.9149 160.329 17.0509 160.193 17.2823C159.812 17.9899 159.635 19.3643 158.805 19.8542V19.8814C159.186 20.0175 159.472 20.3985 159.798 21.0381L161.309 23.855H160.097L158.791 21.2967C158.437 20.6026 158.138 20.3577 157.893 20.3577H156.723V23.855H155.675V16.0031H155.688ZM151.048 19.9495C151.048 18.1532 150.055 16.8332 148.313 16.8332C146.653 16.8332 145.564 18.0715 145.564 19.9495C145.564 21.841 146.653 23.0521 148.313 23.0521C149.946 23.0521 151.048 21.841 151.048 19.9495ZM144.435 19.9495C144.435 17.568 146.068 15.9215 148.299 15.9215C150.558 15.9215 152.15 17.5953 152.15 19.9495C152.15 22.3853 150.49 23.9638 148.299 23.9638C146.081 23.9638 144.435 22.3717 144.435 19.9495ZM137.141 16.0031H143.047V23.8414H141.985V16.9012H138.188V23.8414H137.141V16.0031ZM179.326 0H180.224C180.224 0.530715 180.496 0.966174 181.231 0.966174C181.952 0.966174 182.224 0.530715 182.224 0H183.122C183.15 1.02061 182.442 1.75544 181.217 1.75544C179.965 1.75544 179.298 1.02061 179.326 0ZM177.91 2.20451H178.958V6.94012C178.958 7.48445 178.958 7.87908 178.931 8.30093H178.958C179.217 7.91991 179.557 7.43002 180.02 6.83126L183.503 2.20451H184.524V10.0428H183.463V5.13025C183.463 4.55871 183.476 4.19129 183.49 3.82387H183.463C183.204 4.2049 182.864 4.66757 182.442 5.23911L178.809 10.0428H177.91V2.20451ZM175.094 2.20451H176.155V10.0428H175.094V2.20451ZM171.161 9.15824C172.454 9.15824 173.066 8.66835 173.066 7.67496C173.066 7.0626 172.835 6.65435 172.399 6.42302C172.073 6.24611 171.624 6.17807 171.025 6.17807H170.494V9.15824H171.161ZM169.433 2.20451H170.48V5.29355H170.984C171.841 5.29355 172.494 5.41602 172.998 5.66096C173.76 6.04199 174.155 6.70879 174.155 7.63414C174.155 9.04938 173.311 10.0428 171.134 10.0428H169.446V2.20451H169.433ZM161.431 2.20451H162.492V5.57932H166.616V2.20451H167.664V10.0428H166.616V6.49106H162.492V10.0428H161.431V2.20451ZM157.335 9.15824C158.356 9.15824 158.995 8.76361 158.995 7.79743C158.995 6.98095 158.383 6.47745 157.444 6.47745H156.246V9.15824H157.335ZM157.049 5.60653C158.015 5.60653 158.519 5.11664 158.519 4.32737C158.519 3.60614 158.097 3.07543 157.063 3.07543H156.246V5.59292H157.049V5.60653ZM155.185 2.20451H157.158C158.832 2.20451 159.58 3.12986 159.58 4.19129C159.58 4.95334 159.199 5.57932 158.573 5.86509V5.8923C159.458 6.09642 160.084 6.83126 160.084 7.79743C160.084 9.0902 159.159 10.0428 157.389 10.0428H155.185V2.20451ZM152.014 7.11703L151.279 5.06221C151.048 4.39541 150.939 4.0416 150.844 3.75583H150.817C150.735 4.0416 150.599 4.40902 150.368 5.07582L149.633 7.11703H152.014ZM150.409 2.17729H151.198L154.246 10.0428H153.103L152.341 7.98795H149.293L148.544 10.0428H147.428L150.409 2.17729ZM140.216 10.0836V9.0902C140.325 9.11742 140.407 9.11742 140.461 9.11742C140.801 9.11742 141.141 8.95412 141.386 8.53227C142.108 7.29393 142.611 4.10964 142.774 2.20451H146.517V10.0428H145.455V3.07543H143.686C143.536 4.85809 143.006 7.89269 142.216 9.18546C141.808 9.85225 141.264 10.1244 140.57 10.1244C140.488 10.1244 140.325 10.1108 140.216 10.0836ZM137.141 2.20451V10.0428H138.188V3.10264H140.896L141.223 2.1909H137.141V2.20451Z" fill="#0052CD"/>
<path fill-rule="evenodd" clip-rule="evenodd" d="M115.627 39.9809C122.54 45.0703 127.67 53.5209 129.031 65.8498V70.0003H121.452C119.955 70.0003 118.471 69.4288 117.328 68.2857C116.185 67.1562 115.627 65.6595 115.627 64.1626V39.9809ZM21.4865 24.9575C24.1129 24.9575 27.3652 25.9101 27.3652 30.5505C27.3652 34.5785 24.1129 35.0547 21.4865 35.0547H12.3419V24.9575H21.4865ZM25.3512 45.2337C27.2155 45.2337 31.6926 46.4721 31.6926 52.3508C31.6926 58.2294 27.2019 58.6921 25.3512 58.6921H16.6828C13.8932 58.6921 12.1922 56.9911 12.1922 54.3647V45.2337H25.3512ZM162.221 32.2106V58.6921H156.179C149.511 58.6921 149.511 55.4397 149.511 53.1127V32.2106H137.278V53.1127C137.278 66.435 147.184 69.9867 154.927 69.9867H174.591V32.2106H162.221ZM76.7353 58.7056H69.6183C62.9639 58.7056 62.025 54.3646 62.025 52.0512V48.0234C62.025 44.4581 65.4406 41.8316 68.9923 41.8316C73.3333 41.8316 76.7353 44.4581 76.7353 48.0234V58.7056ZM69.6183 30.3599C57.5343 30.3599 49.7913 38.5658 49.7913 48.9487V52.8269C49.7913 66.1492 60.637 70.014 68.38 70.014H88.6696V48.0096C88.656 37.6403 79.838 30.3599 69.6183 30.3599ZM36.6459 39.2052C39.2723 36.1026 39.7349 32.5508 39.7349 29.7612V28.3732C39.7349 18.3168 31.3796 15.3774 21.4729 15.3774H0.271484V56.8549C0.271484 64.1352 6.31347 70.014 13.7435 70.014H25.9772C42.5382 70.014 44.0895 57.9435 44.0895 53.2896V50.8129C44.0759 46.1589 42.6879 41.6819 36.6459 39.2052ZM97.0386 33.9797C101.325 34.0341 105.571 34.8642 109.49 36.5108V70.0003H103.217C101.638 70.0003 100.06 69.3881 98.8485 68.1906C97.6374 66.9794 97.0386 65.4009 97.0386 63.8224V33.9797Z" fill="#0052CD"/>
<path fill-rule="evenodd" clip-rule="evenodd" d="M88.1777 24.5082C94.7096 23.5556 97.023 25.9506 97.0366 31.5299V33.9658C101.323 34.0202 105.569 34.8503 109.488 36.4969V10.0019L88.1777 20.1536V24.5082ZM115.625 7.02175V39.9806C122.538 45.07 127.668 53.5206 129.043 65.8495V0.462646L115.625 7.02175Z" fill="#0052CD"/>
<path fill-rule="evenodd" clip-rule="evenodd" d="M129.033 0.462646L115.629 7.00814V30.3188C128.475 41.1236 129.046 61.7127 129.046 61.7127L129.033 0.462646Z" fill="#0052CD"/>
<path fill-rule="evenodd" clip-rule="evenodd" d="M88.1777 20.1538V24.5084C88.8445 24.4132 89.4841 24.3451 90.0693 24.3179C98.0844 23.1476 104.453 24.141 109.502 26.4408V10.0022L88.1777 20.1538Z" fill="#0052CD"/>
</g>
</svg>
