<svg width="385" height="60" viewBox="0 0 385 60" fill="none" xmlns="http://www.w3.org/2000/svg">
<path fill-rule="evenodd" clip-rule="evenodd" d="M92.5191 33.055C92.5191 23.6154 91.386 16.1337 72.6549 16.1337C57.0209 16.1337 51.7973 21.7522 51.9083 31.0108H65.9053C66.2816 27.6113 69.4837 26.1059 71.6718 26.1059C73.3335 26.1059 76.805 26.4843 76.807 29.3532C76.8153 37.9537 49.7592 30.0175 49.7592 48.3126C49.7592 56.545 58.3001 59.8848 62.7608 59.7738C68.6487 59.6298 73.1813 58.5666 77.6379 54.4123L79.3489 58.6427H93.2348C92.5767 57.1311 92.5191 33.055 92.5191 33.055ZM69.5433 50.7393C66.4482 50.7393 65.1135 48.6272 65.134 46.6632C65.1711 43.3049 72.1222 43.4262 77.2574 40.9337C77.6379 46.3671 75.0569 50.7393 69.5433 50.7393ZM369.825 42.038C369.37 45.1332 367.785 48.9769 363.707 48.9769C358.763 48.9769 356.058 44.1645 356.058 38.1984C356.058 33.5177 357.815 27.235 363.707 27.235C365.447 27.235 366.804 27.7635 367.783 28.8206C368.768 29.8036 369.368 31.1609 369.447 32.8987H384.55C383.417 21.1928 374.279 16.6601 363.707 16.6601C350.639 16.6601 340.959 24.436 340.959 37.9537C340.959 51.3213 350.942 59.5476 363.707 59.5476C374.656 59.5476 383.493 54.0442 384.854 42.036L369.825 42.038ZM324.151 58.6756H339.318V18.0092H324.151V58.6756ZM324.151 11.7882H339.318V1.40051H324.151V11.7882ZM252.823 16.2427C239.456 16.2427 230.257 24.2632 230.257 38.0093C230.257 51.529 240.211 59.5476 252.9 59.5476C265.589 59.5476 275.555 51.7388 275.555 37.238C275.553 24.9296 266.794 16.2427 252.823 16.2427ZM252.9 48.9748C248.895 48.9748 245.798 44.6786 245.798 37.201C245.798 32.7465 247.69 27.2329 253.048 27.2329C257.128 27.0067 260.009 31.6997 260.009 37.5157C260.009 44.9954 257.128 48.9748 252.9 48.9748ZM202.759 27.8725C202.796 25.9085 204.928 24.9974 207.647 24.9974C208.856 24.9974 210.555 25.2977 211.386 25.9805C211.787 26.3075 212.735 27.4776 212.895 28.8514H227.17C226.781 18.2869 216.42 16.0823 207.162 16.0823C198.931 16.0823 188.252 19.3357 188.233 29.456C188.207 46.0586 213.603 39.9979 213.603 46.3403C213.603 49.1373 211.509 50.1882 207.762 50.1882C206.249 50.1882 204.622 49.1681 203.641 48.4134C202.58 47.5825 202.146 46.6118 201.977 44.7856H187.873C188.149 55.8684 198.261 60 207.324 60C224.13 60 228.978 52.6931 229.039 44.4607C229.153 28.5861 202.654 33.5733 202.759 27.8725ZM185.564 33.055C185.564 23.6154 184.431 16.1337 165.7 16.1337C150.066 16.1337 144.842 21.7522 144.953 31.0108H158.95C159.328 27.6113 162.528 26.1059 164.721 26.1059C166.382 26.1059 169.852 26.4843 169.856 29.3532C169.862 37.9537 142.806 30.0175 142.806 48.3126C142.806 56.545 151.347 59.8848 155.808 59.7738C161.695 59.6298 166.232 58.5666 170.687 54.4123L172.398 58.6427H186.284C185.619 57.1311 185.564 33.055 185.564 33.055ZM162.586 50.7393C159.491 50.7393 158.156 48.6272 158.177 46.6632C158.214 43.3049 165.167 43.4262 170.302 40.9337C170.678 46.3671 168.1 50.7393 162.586 50.7393ZM27.0487 0H0.0996094V58.6324H17.5042V40.4463H27.6513C43.2852 40.4463 50.9068 32.0432 50.9068 20.3373C50.9089 9.1599 42.6826 0 27.0487 0ZM26.2466 27.5517H17.5063V14.326H23.9063C27.6801 14.326 33.4199 15.3522 33.4199 20.4113C33.422 25.0941 30.4009 27.5517 26.2466 27.5517ZM306.092 16.2406C300.128 16.2406 297.609 17.2319 292.058 22.3013L292.1 17.8015L277.708 17.7892V58.6694H292.1V37.201C292.1 32.1398 294.703 29.0447 299.538 29.0447C303.993 29.0447 305.054 31.381 305.054 35.309V58.6715H320.76V33.6514C320.758 22.7763 316.515 16.2406 306.092 16.2406ZM125.547 16.2406C119.581 16.2406 117.062 17.2319 111.513 22.3013L111.55 17.8015L97.1628 17.7892V58.6694H112.322V37.201C112.322 32.1398 114.321 28.4751 119.156 28.4751C123.61 28.4751 124.505 31.381 124.505 35.309V58.6715H140.215V33.6514C140.211 22.7763 135.968 16.2406 125.547 16.2406Z" fill="#0052CD"/>
</svg>
