<svg width="377" height="60" viewBox="0 0 377 60" fill="none" xmlns="http://www.w3.org/2000/svg">
<path fill-rule="evenodd" clip-rule="evenodd" d="M287.303 1.03747H302.576V24.1472H333.515V1.03747H348.793V58.7613H333.515V33.296H302.576V58.7613H287.303V1.03747ZM0.855469 1.03747H16.1356V24.1472H47.0704V1.03747H62.4447V58.7613H47.0704V33.296H16.1356V58.7613H0.855469V1.03747ZM75.082 1.03747H90.5528V58.7613H75.082V1.03747ZM361.15 1.03747H376.619V58.7613H361.15V1.03747ZM96.2107 1.03747H156.292V10.6573H133.844V58.7613H118.659V10.6573H96.2107V1.03747ZM169.495 36.6903L180.154 10.94L190.718 36.6903H169.495ZM194.583 45.839L199.867 58.7613H217.13L189.87 1.1317H170.534L143.087 58.7613H160.252L165.63 45.839H194.583ZM263.625 20.6564H279.285C279.092 10.1862 270.039 0.189464 249.005 0.0010191C233.35 -0.0932032 214.391 6.32081 214.294 29.8052C214.2 53.101 233.536 60.3631 249.005 59.9862C263.246 59.5151 279.092 55.5554 279.756 38.0117L264.002 38.1059C263.531 49.0495 254.762 51.2166 249.007 51.3108C243.064 51.3108 230.896 50.0859 230.712 30.0901C230.523 11.2273 241.651 8.58674 249.007 8.58674C256.269 8.67867 263.531 12.0753 263.625 20.6564Z" fill="#0052CD"/>
</svg>
