<svg width="275" height="80" viewBox="0 0 275 80" fill="none" xmlns="http://www.w3.org/2000/svg">
<path d="M31.2444 79.4514H0.617188L15.8886 52.97H46.5159" fill="#0052CD"/>
<path d="M61.7873 79.4514H92.3337L77.0623 52.97H46.5159" fill="#0052CD"/>
<path d="M61.787 26.4815L46.5155 0L31.2443 26.478L46.5159 52.97" fill="#0052CD"/>
<path d="M106.076 68.1711H118.358V63.7405H106.072V58.2726H119.891V53.8279H100.903V79.4514H120.215V75.0068H106.072" fill="#0052CD"/>
<path d="M105.748 30.5111L111.164 49.5591H116.174L121.59 30.5111V49.5591H126.439V23.9426H119.002L113.671 41.9217L108.336 23.9426H100.899V49.5591H105.752" fill="#0052CD"/>
<path d="M218.479 49.5591H223.651V23.9426H218.482V49.5591H218.479Z" fill="#0052CD"/>
<path d="M222.681 79.4514H227.853V53.8279H222.684V79.4514H222.681Z" fill="#0052CD"/>
<path d="M269.55 49.5591H274.722V23.9426H269.553V49.5591H269.55Z" fill="#0052CD"/>
<path d="M128.457 49.5591H133.626V23.9426H128.457V49.5591Z" fill="#0052CD"/>
<path d="M262.359 33.9326H252.098V23.9426H247.006V49.5591H252.098V38.3666H262.359V49.5591H267.37V23.9426H262.359" fill="#0052CD"/>
<path d="M141.309 49.5591H146.559V28.3697H152.783V23.9426H135.004V28.3732H141.306" fill="#0052CD"/>
<path d="M188.337 79.4514H193.59V58.2726H199.895V53.8279H182.116V58.2726H188.34" fill="#0052CD"/>
<path d="M184.862 50.2694C191.41 50.2694 195.046 47.2805 195.046 41.5489V23.9461H189.877V42.0307C189.877 44.2389 188.013 46.0744 184.862 46.0744C180.903 46.0744 179.771 43.8978 179.771 42.0307V23.9426H174.76V41.5524C174.76 47.7166 178.558 50.2729 184.862 50.2729" fill="#0052CD"/>
<path d="M145.831 68.1711H158.033V63.7405H145.831V58.2726H159.569V53.8279H140.659V79.4514H159.974V75.0068H145.831" fill="#0052CD"/>
<path d="M208.46 28.0075C209.832 28.0075 211.449 29.3156 211.449 31.0386C211.454 31.4711 211.371 31.9 211.205 32.2995C211.039 32.699 210.794 33.0605 210.484 33.3626C210.175 33.6646 209.807 33.9009 209.404 34.0567C209 34.2128 208.569 34.2852 208.137 34.2701H201.994V28.0075H208.46ZM208.056 45.6806H201.994V38.2541H207.972C210.155 38.2541 211.935 39.4919 211.935 41.9814C211.935 44.0807 210.317 45.6806 208.056 45.6806ZM202.156 49.5591H209.593C214.438 49.5591 217.269 46.6757 217.269 42.632C217.269 39.3794 214.924 36.5839 212.339 35.9333C214.6 35.3707 216.379 33.0675 216.379 30.2369C216.379 26.4638 213.633 23.9426 208.46 23.9426H196.902V49.5591" fill="#0052CD"/>
<path d="M206.361 65.2033V58.2339H212.582C214.681 58.2339 216.056 59.7108 216.056 61.7327C216.056 63.1638 214.843 65.2068 212.743 65.2068H206.358L206.361 65.2033ZM216.622 67.1513C218.802 66.4903 221.147 64.5141 221.147 60.9626C221.147 56.4054 218.074 53.7928 212.824 53.7928H201.104V79.4092H206.358V69.3174H210.721C213.39 69.3174 214.843 70.6993 215.247 72.5243C215.732 74.5391 215.651 77.535 216.137 79.4092H221.39C220.905 77.4471 220.581 74.7818 220.42 72.679C220.258 69.2119 218.398 67.8229 216.622 67.1513Z" fill="#0052CD"/>
<path d="M127.082 53.8279H121.913V79.4514H139.125V75.0068H127.082" fill="#0052CD"/>
<path d="M161.51 38.7323C165.632 39.4497 167.973 40.2268 167.973 42.7058C167.973 44.3796 166.356 45.9795 162.882 45.9795C159.408 45.9795 157.628 44.0244 157.628 41.6896H152.702C152.702 46.1483 155.614 50.2132 163.128 50.2132C170.238 50.2132 173.392 46.4261 173.392 42.101C173.392 38.0572 170.723 35.4973 166.036 34.562C161.43 33.6723 158.36 33.486 158.36 30.6026C158.36 28.6229 160.139 27.4414 162.966 27.4414C165.874 27.4414 167.573 28.9042 167.573 31.3621H172.583C172.583 27.3183 169.514 23.1585 162.724 23.1585C158.036 23.1585 153.187 25.8661 153.187 30.9296C153.187 35.1844 156.261 37.8181 161.514 38.7323" fill="#0052CD"/>
<path d="M233.673 38.7323C237.875 39.4497 240.216 40.2268 240.216 42.7058C240.216 44.3796 238.522 45.9795 235.128 45.9795C231.651 45.9795 229.875 44.0244 229.875 41.6896H224.945C224.945 46.1483 227.772 50.2132 235.371 50.2132C242.481 50.2132 245.632 46.4261 245.632 42.101C245.632 38.0572 242.966 35.4973 238.198 34.562C233.673 33.6723 230.522 33.486 230.522 30.6026C230.522 28.6229 232.379 27.4414 235.128 27.4414C238.117 27.4414 239.812 28.9042 239.812 31.3621H244.823C244.823 27.3183 241.753 23.1585 234.967 23.1585C230.279 23.1585 225.349 25.8661 225.349 30.9296C225.349 35.1844 228.5 37.8181 233.673 38.7323Z" fill="#0052CD"/>
<path d="M171.609 75.4921C167.488 75.4921 165.065 71.4026 165.065 66.5289C165.065 61.6553 167.407 57.5693 171.609 57.5693C174.844 57.5693 176.462 59.5314 177.105 61.9472H182.521C181.631 56.9294 177.752 53.2126 171.528 53.2126C163.691 53.2126 159.65 59.2079 159.65 66.5957C159.65 74.0047 163.852 80 171.528 80C177.672 80 181.793 76.4309 182.521 70.949H177.105C176.458 73.5264 174.76 75.4921 171.609 75.4921Z" fill="#0052CD"/>
<path d="M241.106 75.4921C236.904 75.4921 234.481 71.4026 234.481 66.5289C234.481 61.6553 236.823 57.5693 241.106 57.5693C244.257 57.5693 245.874 59.5314 246.602 61.9472H251.936C251.047 56.9294 247.168 53.2126 240.944 53.2126C233.106 53.2126 229.147 59.2079 229.147 66.5957C229.147 74.0047 233.268 80 240.944 80C247.087 80 251.208 76.4309 252.017 70.949H246.602C245.874 73.5264 244.176 75.4921 241.106 75.4921Z" fill="#0052CD"/>
</svg>
