<svg width="360" height="70" viewBox="0 0 360 70" fill="none" xmlns="http://www.w3.org/2000/svg">
<path fill-rule="evenodd" clip-rule="evenodd" d="M84.8867 30.6275C85.1038 32.0734 85.2675 33.5155 85.2675 34.9945C85.2675 54.2999 66.2435 70 42.9666 70C39.5414 70 36.1972 69.691 33.0039 68.9993C34.3302 66.2327 37.2973 60.0612 42.1094 48.9617C49.1454 32.7264 36.4327 32.0476 36.4327 32.0476L36.716 30.6275H84.8867Z" fill="#0052CD"/>
<path fill-rule="evenodd" clip-rule="evenodd" d="M42.9666 0C61.7588 0 77.7219 10.2331 83.1999 24.2831H37.5529L18.906 63.777C7.94266 57.4032 0.722656 46.8941 0.722656 34.9945C0.722656 15.7093 19.6878 0 42.9666 0ZM359.204 14.2174H324.843C324.843 14.2174 301.662 13.1763 298.74 37.9082C295.819 62.6439 308.376 66.6815 320.546 66.6815H347.573L349.326 59.8294H325.104C325.104 59.8294 313.453 58.8288 315.211 42.0931C315.23 41.9551 315.248 41.8208 315.248 41.7252H350.325L352.229 35.7468H316.208C318.725 24.0293 324.203 20.3006 332.079 20.3006H357.301L359.204 14.2174ZM300.352 14.2174H266.018C266.018 14.2174 242.813 13.1763 239.897 37.9082C236.974 62.6439 249.506 66.6815 261.697 66.6815H288.702L290.457 59.8294H266.246C266.246 59.8294 254.583 58.8288 256.335 42.0931C256.381 41.9757 256.406 41.8512 256.408 41.7252H291.487L293.375 35.7468H257.357C259.874 24.0293 265.383 20.3006 273.256 20.3006H298.459L300.352 14.2174ZM181.495 14.2174H222.784C222.784 14.2174 239.678 13.5552 236.95 27.5169C234.172 41.5284 222.389 42.06 219.652 42.06L233.08 66.7662H220.866C220.866 66.7662 214.427 68.8135 208.808 58.402C203.183 47.9702 196.617 35.6291 196.617 35.6291H208.808C208.808 35.6291 217.582 35.8793 220.06 29.0566C222.521 22.1861 217.448 20.663 213.314 20.663H197.28L184.653 67.0494H167.382L181.495 14.2174ZM172.527 14.0703H131.617C131.617 14.0703 109.724 13.6545 102.936 38.6643C102.936 38.6643 94.2001 63.6924 119.914 66.6742H150.248C150.248 66.6742 159.618 68.3021 163.54 52.8063C167.496 37.3012 167.758 35.55 167.758 35.55H138.265L135.968 42.621H149.815L146.26 54.9824C146.26 54.9824 145.334 59.4983 141.642 59.7283C137.982 60.0226 128.462 59.7283 128.462 59.7283C128.462 59.7283 119.914 60.1808 119.09 50.6633C118.281 41.1089 123.179 21.4301 138.519 21.4301H170.04L172.527 14.0703Z" fill="#0052CD"/>
</svg>
