<svg width="206" height="100" viewBox="0 0 206 100" fill="none" xmlns="http://www.w3.org/2000/svg">
<path d="M58.1659 69.9685C58.1787 71.1157 57.9621 72.2539 57.5289 73.3163C57.0958 74.3787 56.4547 75.3439 55.6435 76.1552C54.8322 76.9664 53.867 77.6075 52.8046 78.0406C51.7422 78.4738 50.604 78.6904 49.4568 78.6776C48.3069 78.7001 47.1644 78.4901 46.0976 78.0604C45.0308 77.6307 44.0617 76.99 43.2485 76.1768C42.4353 75.3635 41.7946 74.3945 41.3648 73.3277C40.9351 72.2609 40.7252 71.1183 40.7476 69.9685V39.9369C40.5975 36.9638 42.0891 35.3671 42.5495 34.8366H30.8372C31.4529 35.3671 32.9394 37.0689 32.9394 39.9419V68.1766C32.9545 77.3362 40.3322 83.858 49.4568 83.793C58.5263 83.858 65.8991 77.3362 65.9741 68.1766V39.9369C65.9141 36.9588 67.4006 35.3671 68.0763 34.8316H56.364C56.7645 35.3621 58.251 37.0639 58.1659 39.9369V69.9685ZM11.9174 83.1874C11.4569 82.5917 9.96533 80.995 10.1155 78.077V58.8568H20.3262C22.1982 58.8718 23.7948 59.7227 24.8309 60.6587L24.5306 54.0568H10.1155V39.6416H23.93C25.812 39.5165 27.4086 40.3674 28.4347 41.4435L28.1344 34.8366H0.205078C0.820725 35.3671 2.30729 37.0689 2.30729 39.9419V78.082C2.30729 81.0001 0.820725 82.5917 0.205078 83.1924L11.9174 83.1874ZM68.9773 100C69.5279 99.6096 75.4841 92.9076 75.5842 88.2877V39.9369C75.5412 38.0333 74.792 36.2136 73.482 34.8316H85.1943C84.6337 35.3621 83.1422 36.9588 83.0921 39.9369V81.6808C83.1422 91.8464 78.4622 99.7147 68.9773 100ZM99.9098 78.082C99.9498 81.0001 101.436 82.5917 102.012 83.1924H90.2997C90.8002 82.5967 92.2868 80.8949 92.4019 77.7867V39.9369C92.3464 38.0374 91.5988 36.2235 90.2997 34.8366H102.012C101.436 35.3671 99.9498 36.9638 99.9098 39.9419V78.082ZM115.526 34.8366H127.238H115.526ZM87.2965 5.10536C90.1645 1.3364 93.488 0.140147 97.2069 0C104.349 0.140147 110.075 5.86616 110.12 12.9136C110.075 19.986 104.349 25.712 97.2069 25.8271C94.5384 25.6905 91.9512 24.8626 89.699 23.4246C87.1814 21.8329 84.8439 18.5645 83.6927 17.118C83.0776 16.3589 82.299 15.7486 81.415 15.3325C80.5309 14.9165 79.5643 14.7056 78.5874 14.7155C76.7555 14.7155 74.9986 15.4432 73.7032 16.7385C72.4079 18.0339 71.6801 19.7908 71.6801 21.6227C71.7252 25.3216 74.7884 28.3848 78.5874 28.53C81.8508 28.3848 85.4796 25.3666 86.3956 23.7249V28.53C85.403 29.6031 84.1934 30.4527 82.8471 31.0223C81.5008 31.5918 80.0488 31.8684 78.5874 31.8334C72.8764 31.8434 68.2665 27.2336 68.3767 21.6227C68.2665 15.8516 72.8764 11.2368 78.5874 11.1117C81.6055 11.2368 84.3284 12.5482 86.0953 14.7155C87.8221 16.8627 89.9743 19.6957 92.1016 20.7218C93.5731 21.6678 95.36 22.2534 97.2069 22.2233C98.4347 22.2436 99.654 22.0168 100.792 21.5565C101.931 21.0961 102.965 20.4116 103.833 19.5435C104.702 18.6755 105.387 17.6417 105.848 16.5036C106.309 15.3655 106.536 14.1463 106.517 12.9186C106.617 7.78317 102.437 3.60879 97.2069 3.60879C92.7823 3.60879 89.3136 6.12643 86.6959 11.422L87.2965 5.10536ZM196.311 69.9685C196.281 74.7935 192.342 78.7327 187.602 78.6776C185.253 78.7138 182.986 77.8174 181.297 76.1849C179.609 74.5524 178.636 72.3169 178.592 69.9685V39.9369C178.652 36.9588 180.144 35.3671 180.695 34.8316H168.982C169.503 35.3621 170.994 37.0639 171.084 39.9369V68.1716C171.009 77.3312 178.382 83.8531 187.602 83.788C196.576 83.8531 203.954 77.3312 203.819 68.1716V39.9369C203.969 36.9588 205.456 35.3671 205.921 34.8316H194.209C194.819 35.3621 196.306 37.0639 196.311 39.9369V69.9685ZM104.414 41.7438C106.752 39.091 109.094 39.5165 111.021 39.6416H117.628V77.7817C117.603 80.8899 116.117 82.5917 115.526 83.1874H127.238C126.753 82.5917 125.261 80.995 125.136 78.077V39.6416H131.443C133.45 39.5165 135.152 39.3063 136.248 41.7438L138.35 34.8366H106.517L104.414 41.7438ZM162.976 41.7438V34.8366C159.082 33.7705 141.639 30.9024 138.35 44.4467C137.494 49.3018 139.616 55.5784 145.858 58.8618C149.937 60.7888 155.253 63.767 156.97 64.8681C159.723 66.5299 160.223 69.1026 159.372 72.376C158.551 75.9998 149.722 83.8681 138.35 73.8776L140.753 82.2864C147.81 85.0443 159.192 83.9782 164.478 78.082C169.613 72.2759 168.762 63.6618 163.276 60.0631C159.743 57.6505 150.788 52.7053 149.161 51.9546C147.805 51.2188 142.81 45.4727 148.261 40.2423C153.631 35.0868 161.314 38.135 162.976 41.7438Z" fill="#0052CD"/>
</svg>
