<svg width="336" height="60" viewBox="0 0 336 60" fill="none" xmlns="http://www.w3.org/2000/svg">
<path d="M4.53601 20.466L0.921875 58.9254H20.4891L22.6899 35.5718H41.0113L38.8058 58.9254H58.3695L63.929 0.0011719H44.3606L42.4364 20.4672L4.53601 20.466Z" fill="#0052CD"/>
<path d="M24.3481 18.0109L26.0462 0H6.47784L4.77742 18.0109H24.3481Z" fill="#0052CD"/>
<path d="M68.1021 13.9866L64.0637 58.9254H81.6762L85.711 13.9866H68.1021ZM86.1517 11.4717L87.2333 0H69.622L68.5404 11.4717H86.1517ZM111.284 24.0977C112.712 24.0977 114.085 24.5079 115.08 25.3364C116.164 26.0724 116.862 27.1482 116.821 28.558H132.833C133.42 17.5785 121.659 15.0179 111.692 15.0179C102.447 15.0179 89.6404 17.8257 88.6173 28.6412C87.9259 35.9866 92.978 39.9465 106.208 42.0887C114.264 43.4071 115.707 44.1548 115.476 46.6275C115.241 49.106 111.517 49.9357 109.205 49.9357C107.068 49.9357 105.428 49.4389 104.611 48.6959C103.374 47.6248 102.78 46.3825 102.834 44.9024H86.0216C85.2446 55.9558 96.7773 60 107.63 60C118.839 60 131.416 56.789 132.532 44.9024C133.194 37.8816 128.343 34.6659 122.636 32.9327C116.934 31.1139 110.302 30.7881 107.476 29.6209C106.532 29.2213 105.517 28.6424 105.637 27.4025C105.898 24.5946 108.793 24.0977 111.284 24.0977ZM151.293 32.6807C152.533 28.0541 155.795 25.4982 161.038 25.4982C165.582 25.4982 168.482 28.722 168.102 32.6807H151.293ZM160.43 15.019C145.841 15.019 135.099 25.1688 133.93 37.632C132.585 51.9139 142.941 60 157.696 60C168.196 60 178.298 55.7073 182.73 46.4622H166.271C164.652 48.5259 161.448 49.5139 158.6 49.5139C153.087 49.5139 150.39 46.0544 150.404 41.184H184.2C185.777 24.5114 178.751 15.019 160.43 15.019ZM221.801 15.019C214.778 15.019 209.849 17.2445 206.154 21.5395H205.977L206.484 16.0948H189.5L185.461 58.9254H203.074L205.207 36.3148C205.849 29.4592 209.981 28.0541 213.007 28.0541C218.164 28.0541 218.459 31.5229 218 36.4765L215.876 58.9254H233.49L236.253 29.5482C237.182 19.7219 230.062 15.019 221.801 15.019ZM262.656 24.0977C264.073 24.0977 265.461 24.5079 266.452 25.3364C267.536 26.0724 268.238 27.1482 268.19 28.558H284.205C284.791 17.5785 273.018 15.0179 263.063 15.0179C253.817 15.0179 241.005 17.8257 239.988 28.6412C239.298 35.9866 244.348 39.9465 257.577 42.0887C265.638 43.4071 267.077 44.1548 266.844 46.6275C266.609 49.106 262.887 49.9357 260.573 49.9357C258.438 49.9357 256.798 49.4389 255.974 48.6959C254.744 47.6248 254.149 46.3825 254.199 44.9024H237.387C236.615 55.9558 248.155 60 259 60C270.21 60 282.783 56.789 283.906 44.9024C284.563 37.8816 279.712 34.6659 274.007 32.9327C268.304 31.1139 261.667 30.7881 258.846 29.6209C257.901 29.2213 256.884 28.6424 257.004 27.4025C257.265 24.5946 260.161 24.0977 262.656 24.0977ZM302.664 32.6807C303.895 28.0541 307.169 25.4982 312.41 25.4982C316.949 25.4982 319.849 28.722 319.471 32.6807H302.664ZM311.799 15.019C297.213 15.019 286.475 25.1688 285.304 37.632C283.956 51.9139 294.309 60 309.074 60C319.57 60 329.666 55.7073 334.092 46.4622H317.646C316.021 48.5259 312.825 49.5139 309.975 49.5139C304.457 49.5139 301.759 46.0544 301.78 41.184H335.568C337.141 24.5114 330.126 15.019 311.799 15.019Z" fill="#0052CD"/>
</svg>
