<svg width="334" height="70" viewBox="0 0 334 70" fill="none" xmlns="http://www.w3.org/2000/svg">
<path d="M76.6559 0H0.783486V70L76.6559 0Z" fill="#0052CD"/>
<path d="M38.7118 0H0.78125V35.0162L38.7118 0Z" fill="black"/>
<path d="M182.603 15.1935L172.699 54.792H190.198L200.095 15.1935H182.603ZM138.625 38.143L145.096 26.7202L147.195 38.1441L138.625 38.143ZM140.149 15.189L117.645 54.7853H129.218L132.954 48.1863H149.02L150.216 54.7864H167.298L160.038 15.1901L140.149 15.189ZM262.518 15.1935L252.64 54.792H270.135L280.014 15.1935H262.518ZM254.698 15.1935H236.767L221.759 28.1467L225.035 15.1935H208.263L198.385 54.792H215.104L218.519 41.1222L227.459 54.792H247.697L232.708 34.0548L254.698 15.1935ZM103.913 33.1884C103.913 33.1884 102.777 46.0511 91.8169 46.0511H85.6159L91.078 24.6923H96.7055C98.7189 24.7046 104.548 25.2278 103.913 33.1884ZM103.026 15.2125L98.4998 15.198H76.6056L66.7266 54.7797H88.4677L97.0688 54.792C109.179 54.792 121.097 45.7772 121.097 31.9688C121.097 15.7222 103.025 15.2114 103.025 15.2114M321.805 15.1879L315.97 38.5041L308.193 15.1879H288.734L278.848 54.792H290.949L296.841 31.2712L304.641 54.792H324.017L333.918 15.1879H321.805Z" fill="#0052CD"/>
</svg>
