<svg width="44" height="54" viewBox="0 0 44 54" fill="none" xmlns="http://www.w3.org/2000/svg">
<path d="M21.992 6.00033L21.795 5.91592L21.598 6.00033L4.9041 13.1546L4.60105 13.2845V13.6142V27.8897C4.60105 38.2354 11.7708 46.1895 21.6908 48.3039L21.795 48.3261L21.8992 48.3039C31.8192 46.1895 38.9889 38.2354 38.9889 27.8897V13.6142V13.2845L38.6859 13.1546L21.992 6.00033ZM21.992 1.54043L21.795 1.45602L21.598 1.54043L0.803042 10.4525L0.5 10.5824V10.9121V27.8897C0.5 40.253 9.13046 49.9042 21.0357 52.3543L21.0357 52.3543L21.6943 52.4897L21.795 52.5105L21.8957 52.4897L22.5543 52.3543L22.5543 52.3543C34.4595 49.9042 43.09 40.253 43.09 27.8897V10.9121V10.5824L42.787 10.4525L21.992 1.54043ZM21.9741 5.27279C21.9757 5.27303 21.9773 5.27327 21.9788 5.2735L39.3973 12.7385L39.4138 12.7456L39.4309 12.7514C39.5616 12.7967 39.6549 12.9214 39.6549 13.0668V27.8897V28.1144C39.5515 38.6851 32.1511 46.8606 21.8818 48.9835L21.8818 48.9834L21.8707 48.9859C21.8249 48.9965 21.7776 48.9976 21.7298 48.9878C11.3775 46.8574 3.93453 38.5772 3.93453 27.8897V13.5668H3.93619V13.0668C3.93619 12.9372 4.01256 12.8154 4.13762 12.7623L4.13909 12.7617L21.6501 5.25659C21.6557 5.25573 21.6667 5.25432 21.684 5.25334C21.7245 5.25105 21.7756 5.25233 21.8314 5.25664C21.8859 5.26085 21.9366 5.2673 21.9741 5.27279Z" stroke="white"/>
<path d="M31.0417 31.2577V29.591C31.0423 28.5039 30.8288 27.4273 30.4133 26.4227C29.9979 25.4181 29.3886 24.5052 28.6204 23.736C27.5826 26.0983 27.2415 28.708 27.6374 31.2577H31.0417Z" fill="#080808"/>
<path d="M23.7476 19.9824C23.1531 19.7445 22.5146 19.6368 21.875 19.6667C21.2352 19.6369 20.5964 19.7446 20.0017 19.9824L20.6816 26.0245C20.7146 26.3179 20.8545 26.5888 21.0746 26.7855C21.2947 26.9822 21.5796 27.091 21.8748 27.091C22.17 27.091 22.4549 26.9822 22.675 26.7855C22.8951 26.5888 23.035 26.3179 23.068 26.0245L23.7476 19.9824Z" fill="#080808"/>
<path d="M19.9643 28.0281C19.4386 27.5583 19.1044 26.9114 19.0255 26.2108L18.514 21.6656C17.7876 21.8948 17.0962 22.2227 16.459 22.64C17.7628 25.3123 18.2281 28.3162 17.7939 31.2577H25.956C25.5216 28.3162 25.9869 25.3121 27.2908 22.6399C26.6537 22.2227 25.9623 21.8948 25.2361 21.6655L24.7249 26.2108C24.646 26.9114 24.3118 27.5583 23.7862 28.0281C23.2605 28.4979 22.5802 28.7576 21.8752 28.7576C21.1702 28.7576 20.4899 28.4979 19.9643 28.0281Z" fill="#080808"/>
<path d="M13.3366 26.4227C12.9212 27.4273 12.7077 28.5039 12.7083 29.591V31.2577H16.112C16.5081 28.7081 16.1672 26.0984 15.1296 23.7361C14.3613 24.5052 13.7521 25.4181 13.3366 26.4227Z" fill="#080808"/>
<path d="M11.875 34.591H31.875C32.096 34.591 32.308 34.5032 32.4643 34.3469C32.6205 34.1906 32.7083 33.9787 32.7083 33.7577C32.7083 33.5366 32.6205 33.3247 32.4643 33.1684C32.308 33.0121 32.096 32.9243 31.875 32.9243H11.875C11.654 32.9243 11.442 33.0121 11.2858 33.1684C11.1295 33.3247 11.0417 33.5366 11.0417 33.7577C11.0417 33.9787 11.1295 34.1906 11.2858 34.3469C11.442 34.5032 11.654 34.591 11.875 34.591Z" fill="#080808"/>
</svg>
