<svg width="101" height="100" viewBox="0 0 101 100" fill="none" xmlns="http://www.w3.org/2000/svg">
<rect x="0.125" width="100" height="100" rx="50" fill="#0052CD"/>
<path fill-rule="evenodd" clip-rule="evenodd" d="M50.1251 29.4599L33.4311 36.6142V50.8897C33.4311 60.9767 40.4129 68.7447 50.1251 70.8149C59.8372 68.7447 66.819 60.9767 66.819 50.8897V36.6142L50.1251 29.4599ZM50.1251 25L29.3301 33.9121V50.8897C29.3301 62.996 37.7738 72.4582 49.4665 74.8645L50.1251 75L50.7836 74.8645C62.4763 72.4582 70.9201 62.996 70.9201 50.8897V33.9121L50.1251 25ZM68.4861 50.8897C68.4861 61.8282 60.8651 70.2918 50.3131 72.4731C50.2003 72.4991 50.0803 72.5024 49.9592 72.4776C39.3967 70.304 31.7646 61.8365 31.7646 50.8897V36.0668H31.7663C31.7663 35.7439 31.9559 35.4365 32.2722 35.3021L49.7994 27.7901C50.0001 27.7049 50.234 27.6977 50.4502 27.7901L67.9243 35.2789C68.2505 35.3917 68.485 35.7019 68.485 36.0668V50.8897H68.4861Z" fill="white"/>
<path fill-rule="evenodd" clip-rule="evenodd" d="M49.9381 39.0021C50.5235 38.9768 50.9855 39.1826 51.451 39.4804C52.0418 39.8577 52.7078 40.6051 53.5296 41.078C54.6844 41.7441 56.8257 40.8253 57.9214 42.468C58.5606 43.4247 58.591 44.1757 58.6375 44.9176C58.6895 45.7173 58.8273 46.4538 59.6401 47.5369C60.9847 49.3295 61.264 50.5227 60.5711 51.7665C60.0985 52.6149 59.1048 53.086 58.8739 53.6222C58.3851 54.7648 58.9258 55.6259 58.2562 56.9581C57.7907 57.8824 57.0727 58.4907 56.1167 58.8012C55.311 59.063 54.5 58.6839 53.8554 58.9583C52.7203 59.4384 51.8842 60.5558 50.9801 60.8393C50.631 60.9476 50.2836 61.0017 49.9381 60.9999C49.5907 61.0017 49.2434 60.9494 48.8961 60.8393C47.9937 60.5558 47.1558 59.4403 46.0207 58.9583C45.3744 58.6839 44.5652 59.063 43.7595 58.8012C42.8034 58.4907 42.0855 57.8824 41.62 56.9581C40.9486 55.6259 41.4911 54.7648 41.0005 53.6222C40.7695 53.086 39.7759 52.6149 39.3032 51.7665C38.6104 50.5227 38.8914 49.3295 40.2342 47.5369C41.0471 46.4538 41.1849 45.7173 41.2368 44.9176C41.2852 44.1757 41.3138 43.4247 41.953 42.468C43.0487 40.8253 45.19 41.7441 46.3448 41.078C47.1666 40.6051 47.8308 39.8577 48.4234 39.4804C48.8907 39.1826 49.3526 38.9768 49.9381 39.0021ZM48.0385 48.7301L49.4457 50.0804L51.8681 47.5983C52.108 47.3528 52.2584 47.156 52.5538 47.4629L53.5135 48.454C53.8286 48.7681 53.8125 48.9522 53.5153 49.2446L49.9936 52.7304C49.367 53.3496 49.4762 53.3875 48.8406 52.7521L46.4236 50.3277C46.2911 50.1833 46.3054 50.0371 46.4504 49.8927L47.564 48.7283C47.7305 48.5514 47.8648 48.5623 48.0385 48.7301ZM49.9059 43.9771C53.2986 43.9771 56.0469 46.7499 56.0469 50.1689C56.0469 53.5897 53.2968 56.3606 49.9059 56.3606C46.5131 56.3606 43.7649 53.5879 43.7649 50.1689C43.7649 46.7481 46.5149 43.9771 49.9059 43.9771Z" fill="#0052CD"/>
</svg>
