<svg width="101" height="100" viewBox="0 0 101 100" fill="none" xmlns="http://www.w3.org/2000/svg">
<rect x="0.375" width="100" height="100" rx="50" fill="#0052CD"/>
<path fill-rule="evenodd" clip-rule="evenodd" d="M51.4032 36.2222C60.4032 36.2222 67.681 43.5 67.681 52.5C67.681 61.5 60.4032 68.7778 51.4032 68.7778C42.4032 68.7778 35.1254 61.5 35.1254 52.5C35.1254 43.5 42.4032 36.2222 51.4032 36.2222ZM51.4032 56.8889C53.8477 56.8889 55.7921 54.9444 55.7921 52.5C55.7921 51.7222 55.6254 51.0556 55.2365 50.3889L59.7365 45.8889C60.2365 45.3889 60.2365 44.6111 59.7365 44.1111C59.2365 43.6111 58.4588 43.6111 57.9588 44.1111L53.4032 48.6667C52.7921 48.3333 52.0699 48.1667 51.3477 48.1667C48.9032 48.1667 46.9588 50.1111 46.9588 52.5556C47.0143 54.9444 49.0143 56.8889 51.4032 56.8889ZM51.4032 50.6667C52.4588 50.6667 53.2921 51.5 53.2921 52.5556C53.2921 53.6111 52.4588 54.4444 51.4032 54.4444C50.3477 54.4444 49.5143 53.6111 49.5143 52.5556C49.5143 51.5 50.4032 50.6667 51.4032 50.6667ZM69.2921 38.8333C72.181 42.6111 73.9032 47.3333 73.9032 52.5C73.9032 64.9444 63.8477 75 51.4032 75C42.0699 75 34.0699 69.3333 30.681 61.2222H34.8477C38.0143 67.1667 44.2365 71.2222 51.4588 71.2222C61.7921 71.2222 70.2365 62.8333 70.2365 52.4444C70.2365 42.0556 61.7921 33.7222 51.4032 33.7222C44.7365 33.7222 38.8477 37.2222 35.5143 42.5H31.2365C34.681 35.6111 41.5143 30.7222 49.5143 30.0556V28.7222H46.4032C45.3477 28.7222 44.5143 27.8889 44.5143 26.8333C44.5143 25.7778 45.3477 25 46.4032 25H56.4032C57.4588 25 58.2921 25.8333 58.2921 26.8889C58.2921 27.9444 57.4588 28.7778 56.4032 28.7778H53.2921V30.1111C56.7365 30.3889 59.9588 31.4444 62.8477 33.1111L63.6254 32.1667C64.5143 31.1111 66.0699 31 67.0699 31.8333L69.9032 34.2222C70.9588 35.1111 71.0699 36.6667 70.181 37.7222L69.2921 38.8333ZM29.5143 46.8889H25.1254C24.4032 46.8889 23.8477 46.3333 23.8477 45.6111C23.8477 44.9444 24.4032 44.3889 25.1254 44.3889H29.5143C30.2365 44.3889 30.7921 44.9444 30.7921 45.6667C30.7921 46.3333 30.2365 46.8889 29.5143 46.8889ZM27.0143 51.8889C27.0143 51.2222 27.5699 50.6667 28.2921 50.6667H32.681C33.4032 50.6667 33.9588 51.2222 33.9588 51.8889C33.9588 52.5556 33.4032 53.1111 32.681 53.1111H28.2921C27.5699 53.1111 27.0143 52.5556 27.0143 51.8889ZM25.181 56.2222H29.5699C30.2921 56.2222 30.8477 56.7778 30.8477 57.5C30.8477 58.1667 30.2921 58.7778 29.5699 58.7778H25.181C24.4588 58.7778 23.9032 58.2222 23.9032 57.5C23.9032 56.8333 24.4588 56.2222 25.181 56.2222Z" fill="white"/>
</svg>
