<svg width="46" height="50" viewBox="0 0 46 50" fill="none" xmlns="http://www.w3.org/2000/svg">
<path d="M36.3501 23.7667V27.9454C36.3501 28.4363 35.8951 28.544 35.4761 28.7117L35.8233 30.5436C39.6667 31.669 43.0074 29.7414 45.7727 27.1552L41.2229 26.7242C40.7799 26.6882 40.5404 26.2213 40.744 25.8501L43.5576 20.6657C41.4264 22.2462 39.1639 23.6351 36.3501 23.7667ZM10.3088 28.6877C9.88969 28.532 9.4347 28.4243 9.4347 27.9334V23.7547C6.63298 23.635 4.37005 22.2461 2.21508 20.6656L5.02875 25.85C5.23229 26.2212 4.99283 26.7001 4.54982 26.724L0 27.1551C2.76579 29.7293 6.11831 31.669 9.96169 30.5435L10.3088 28.6877ZM24.1736 18.2589L23.527 17.3848C23.1918 16.9538 22.5692 16.9658 22.2579 17.3848L21.6113 18.2589C21.0965 18.9414 20.2463 19.2167 19.4322 18.9653L18.3905 18.642C17.8757 18.4863 17.3728 18.8575 17.3608 19.3843L17.3489 20.4738C17.3369 21.3239 16.8101 22.0543 15.9959 22.3297L14.9662 22.6769C14.4514 22.8565 14.2718 23.4551 14.5711 23.8862L15.1937 24.7722C15.6846 25.4786 15.6846 26.3647 15.1937 27.0591L14.5711 27.9451C14.2718 28.3642 14.4514 28.9748 14.9662 29.1544L15.9959 29.5017C16.7981 29.777 17.3369 30.4954 17.3489 31.3575L17.3608 32.447C17.3728 32.9858 17.8757 33.357 18.3905 33.1893L19.4322 32.866C20.2463 32.6146 21.1084 32.89 21.6113 33.5724L22.2579 34.4465C22.5811 34.8775 23.2038 34.8775 23.527 34.4465L24.1736 33.5724C24.6884 32.89 25.5385 32.6146 26.3527 32.866L27.3824 33.1893C27.8973 33.345 28.4002 32.9738 28.4121 32.447L28.4241 31.3575C28.4361 30.5074 28.9629 29.777 29.777 29.5017C30.0165 29.4178 30.8786 29.1544 31.0342 29.0347C31.3695 28.7713 31.4533 28.2924 31.2019 27.9452L30.5793 27.0592C30.0884 26.3647 30.0884 25.4667 30.5793 24.7723L31.2019 23.8863C31.5012 23.4672 31.3216 22.8566 30.8067 22.6769L29.777 22.3297C28.9748 22.0543 28.448 21.324 28.4241 20.4739L28.4121 19.3844C28.4121 18.8575 27.8973 18.4864 27.3824 18.6421L26.3527 18.9653C25.5505 19.2287 24.6885 18.9413 24.1736 18.2589ZM13.2421 28.4603C13.1942 26.9876 14.9063 26.4009 14.2359 25.467L13.6133 24.581C12.835 23.4794 13.3499 21.9828 14.5951 21.5518L14.8346 21.4679C13.4098 20.989 12.0089 20.3904 10.6319 19.6959V27.5384L13.2421 28.4603ZM30.6153 21.3602C31.1301 21.5278 31.5851 21.6356 31.9802 22.0427C32.6508 22.7132 32.7585 23.7788 32.1838 24.581L31.5612 25.467C30.8907 26.4129 32.6627 27.0115 32.555 28.5321C33.441 28.2447 34.2791 27.9215 35.1651 27.5503V19.6238C33.6565 20.2944 32.1478 20.8693 30.6153 21.3602ZM26.0415 22.773C24.3054 21.0369 21.4798 21.0369 19.7316 22.773C17.9956 24.5091 17.9956 27.3348 19.7316 29.0829C21.4677 30.819 24.2934 30.819 26.0415 29.0829C27.7896 27.3348 27.7896 24.5092 26.0415 22.773ZM22.8926 20.2706C26.0176 20.2706 28.544 22.797 28.544 25.934C28.544 29.059 26.0176 31.5853 22.8926 31.5853C19.7676 31.5853 17.2293 29.059 17.2293 25.934C17.2412 22.797 19.7676 20.2706 22.8926 20.2706ZM20.1627 25.8262C19.7676 25.1437 20.8093 24.5451 21.1924 25.2276L21.9707 26.5805L24.6766 23.8745C25.2274 23.3238 26.0775 24.1619 25.5267 24.7246L22.27 27.9813C21.9946 28.2567 21.5277 28.1968 21.3241 27.8616L20.1627 25.8262ZM23.8145 2.86161L22.8926 0L21.9707 2.84959C21.8988 3.08905 21.6713 3.26865 21.4079 3.26865L18.4027 3.25668L20.8332 5.01674C21.0368 5.16042 21.1325 5.4358 21.0487 5.68727L20.1148 8.53686L22.5334 6.7768C22.737 6.62115 23.0243 6.60918 23.2518 6.76483L25.6704 8.53684L24.7485 5.71116C24.6647 5.45972 24.7365 5.18434 24.964 5.01672L27.3945 3.25666L24.4251 3.26863C24.1498 3.28061 23.8983 3.12501 23.8145 2.86161ZM10.8478 8.97992L9.92585 6.13033L9.00392 8.97992C8.92011 9.21938 8.70459 9.39898 8.42921 9.39898H5.43592L7.86645 11.159C8.07 11.3027 8.16578 11.5781 8.08197 11.8296L7.14808 14.6792L9.56666 12.9191C9.7702 12.7635 10.0576 12.7515 10.2851 12.9071L12.7036 14.6791L11.7817 11.8535C11.6859 11.614 11.7697 11.3266 11.9972 11.159L14.4278 9.39896H11.4584C11.183 9.41094 10.9316 9.24333 10.8478 8.97992ZM36.7819 8.97992L35.86 6.13033L34.938 8.97992C34.8542 9.21938 34.6387 9.39898 34.3633 9.39898H31.37L33.8006 11.159C34.0041 11.3027 34.0999 11.5781 34.0161 11.8296L33.0822 14.6792L35.5008 12.9191C35.7043 12.7635 35.9917 12.7515 36.2192 12.9071L38.6377 14.6791L37.7158 11.8535C37.62 11.614 37.7038 11.3266 37.9313 11.159L40.3619 9.39896H37.3925C37.1171 9.41094 36.8657 9.24333 36.7819 8.97992ZM22.8931 50L23.8151 47.1504C23.8989 46.887 24.1503 46.7194 24.4137 46.7313H27.3831L24.9526 44.9713C24.7371 44.8156 24.6533 44.5283 24.7371 44.2768L25.659 41.4512L23.2404 43.2232C23.0249 43.3788 22.7376 43.3669 22.522 43.2112L20.1034 41.4511L21.0373 44.3007C21.1211 44.5522 21.0254 44.8276 20.8218 44.9713L18.3913 46.7313H21.3965C21.6599 46.7313 21.8874 46.899 21.9593 47.1504L22.8931 50ZM9.92641 43.8697L10.8483 41.0201C10.9321 40.7567 11.1836 40.5891 11.447 40.6011L14.4164 40.6131L11.9858 38.853C11.7703 38.6854 11.6865 38.41 11.7703 38.1586L12.6923 35.3329L10.2856 37.0929C10.0701 37.2486 9.77079 37.2366 9.56723 37.081L7.14866 35.3209L8.08254 38.1705C8.16636 38.4219 8.07057 38.6853 7.86703 38.841L5.4365 40.6011L8.42979 40.5891C8.6932 40.5891 8.92069 40.7567 9.0045 41.0082L9.92641 43.8697ZM35.8605 43.8697L36.7824 41.0201C36.8663 40.7567 37.1177 40.5891 37.3811 40.6011L40.3505 40.6131L37.9199 38.853C37.7044 38.6854 37.6206 38.41 37.7044 38.1586L38.6264 35.3329L36.2078 37.0929C35.9923 37.2486 35.6929 37.2366 35.4894 37.081L33.0708 35.3209L34.0047 38.1705C34.0885 38.4219 33.9927 38.6853 33.7892 38.841L31.3586 40.6011L34.3519 40.5891C34.6153 40.5891 34.8428 40.7567 34.9266 41.0082L35.8605 43.8697Z" fill="#080808"/>
</svg>
