<svg width="101" height="100" viewBox="0 0 101 100" fill="none" xmlns="http://www.w3.org/2000/svg">
<rect x="0.125" width="100" height="100" rx="50" fill="#0052CD"/>
<path fill-rule="evenodd" clip-rule="evenodd" d="M50.1251 29.4599L33.4311 36.6142V50.8897C33.4311 60.9767 40.4129 68.7447 50.1251 70.8149C59.8372 68.7447 66.819 60.9767 66.819 50.8897V36.6142L50.1251 29.4599ZM50.1251 25L29.3301 33.9121V50.8897C29.3301 62.996 37.7738 72.4582 49.4665 74.8645L50.1251 75L50.7836 74.8645C62.4763 72.4582 70.9201 62.996 70.9201 50.8897V33.9121L50.1251 25ZM68.4861 50.8897C68.4861 61.8282 60.8651 70.2918 50.3131 72.4731C50.2003 72.4991 50.0803 72.5024 49.9592 72.4776C39.3967 70.304 31.7646 61.8365 31.7646 50.8897V36.0668H31.7663C31.7663 35.7439 31.9559 35.4365 32.2722 35.3021L49.7994 27.7901C50.0001 27.7049 50.4502 27.7901 50.4502 27.7901L67.9243 35.2789C68.2506 35.3917 68.485 35.7019 68.485 36.0668V50.8897H68.4861Z" fill="white"/>
<path fill-rule="evenodd" clip-rule="evenodd" d="M50.0007 39.0021C50.5861 38.9768 51.0481 39.1826 51.5136 39.4805C52.1044 39.8578 52.7704 40.6051 53.5922 41.078C54.747 41.7442 56.8883 40.8253 57.984 42.468C58.6231 43.4248 58.6536 44.1757 58.7001 44.9177C58.7521 45.7173 58.8899 46.4539 59.7027 47.537C61.0473 49.3295 61.3266 50.5227 60.6337 51.7665C60.1611 52.6149 59.1674 53.0861 58.9365 53.6222C58.4477 54.7649 58.9884 55.6259 58.3188 56.9582C57.8533 57.8824 57.1353 58.4908 56.1793 58.8013C55.3736 59.063 54.5626 58.6839 53.918 58.9583C52.7829 59.4385 51.9468 60.5559 51.0427 60.8393C50.6936 60.9476 50.3462 61.0018 50.0007 61C49.6533 61.0018 49.306 60.9494 48.9587 60.8393C48.0563 60.5559 47.2184 59.4403 46.0833 58.9583C45.437 58.6839 44.6278 59.063 43.8221 58.8013C42.866 58.4908 42.1481 57.8824 41.6826 56.9582C41.0112 55.6259 41.5537 54.7649 41.0631 53.6222C40.8321 53.0861 39.8385 52.6149 39.3658 51.7665C38.6729 50.5227 38.954 49.3295 40.2968 47.537C41.1097 46.4539 41.2475 45.7173 41.2994 44.9177C41.3478 44.1757 41.3764 43.4248 42.0156 42.468C43.1113 40.8253 45.2526 41.7442 46.4074 41.078C47.2292 40.6051 47.8934 39.8578 48.486 39.4805C48.9533 39.1826 49.4152 38.9768 50.0007 39.0021ZM48.1011 48.7302L49.5083 50.0805L51.9307 47.5983C52.1706 47.3528 52.321 47.1561 52.6164 47.4629L53.5761 48.454C53.8912 48.7681 53.8751 48.9522 53.5779 49.2447L50.0562 52.7304C49.4295 53.3496 49.5388 53.3875 48.9032 52.7521L46.4862 50.3278C46.3537 50.1833 46.368 50.0371 46.513 49.8927L47.6266 48.7284C47.7931 48.5515 47.9274 48.5623 48.1011 48.7302ZM49.9685 43.9772C53.3612 43.9772 56.1095 46.7499 56.1095 50.1689C56.1095 53.5897 53.3594 56.3607 49.9685 56.3607C46.5757 56.3607 43.8275 53.5879 43.8275 50.1689C43.8275 46.7481 46.5775 43.9772 49.9685 43.9772Z" fill="#0052CD"/>
</svg>
