<svg width="101" height="100" viewBox="0 0 101 100" fill="none" xmlns="http://www.w3.org/2000/svg">
<rect x="0.125" width="100" height="100" rx="50" fill="#0052CD"/>
<path d="M71.4196 46.5978V53.2066C71.4196 53.983 70.7 54.1535 70.0372 54.4186L70.5863 57.3159C76.665 59.0959 81.9485 56.0471 86.3222 51.9569L79.1263 51.2752C78.4256 51.2184 78.0469 50.4798 78.3688 49.8928L82.8189 41.6933C79.4481 44.1929 75.8698 46.3895 71.4196 46.5978ZM30.2329 54.3807C29.5701 54.1345 28.8505 53.9641 28.8505 53.1876V46.5788C24.4193 46.3894 20.8403 44.1928 17.4321 41.6931L21.8821 49.8926C22.204 50.4796 21.8253 51.2371 21.1246 51.275L13.9287 51.9567C18.3031 56.0281 23.6054 59.0958 29.684 57.3157L30.2329 54.3807ZM52.1613 37.8866L51.1387 36.5042C50.6085 35.8225 49.6238 35.8414 49.1314 36.5042L48.1089 37.8866C47.2946 38.966 45.95 39.4015 44.6624 39.0038L43.0149 38.4925C42.2006 38.2464 41.4053 38.8334 41.3864 39.6666L41.3674 41.3898C41.3485 42.7342 40.5153 43.8894 39.2276 44.3249L37.599 44.8741C36.7848 45.1581 36.5007 46.1049 36.9741 46.7867L37.9588 48.188C38.7352 49.3052 38.7352 50.7066 37.9588 51.8049L36.9741 53.2062C36.5007 53.869 36.7848 54.8348 37.599 55.1189L39.2276 55.668C40.4964 56.1036 41.3485 57.2398 41.3674 58.6032L41.3864 60.3264C41.4053 61.1785 42.2006 61.7656 43.0149 61.5004L44.6624 60.9891C45.95 60.5914 47.3135 61.027 48.1089 62.1063L49.1314 63.4887C49.6427 64.1704 50.6275 64.1704 51.1387 63.4887L52.1613 62.1063C52.9756 61.0269 54.3201 60.5914 55.6078 60.9891L57.2363 61.5004C58.0506 61.7466 58.846 61.1595 58.8649 60.3264L58.8838 58.6032C58.9028 57.2587 59.736 56.1036 61.0236 55.668C61.4024 55.5355 62.7658 55.1189 63.012 54.9295C63.5422 54.5129 63.6748 53.7555 63.2771 53.2063L62.2924 51.805C61.516 50.7067 61.516 49.2864 62.2924 48.1881L63.2771 46.7868C63.7505 46.124 63.4665 45.1582 62.6522 44.8741L61.0237 44.325C59.7549 43.8894 58.9217 42.7343 58.8838 41.3898L58.8649 39.6667C58.8649 38.8334 58.0506 38.2465 57.2364 38.4926L55.6078 39.0039C54.339 39.4205 52.9756 38.9659 52.1613 37.8866ZM34.8722 54.021C34.7965 51.6918 37.5044 50.7638 36.444 49.2868L35.4593 47.8855C34.2284 46.1433 35.0427 43.7763 37.0121 43.0946L37.3908 42.962C35.1374 42.2045 32.9218 41.2577 30.7441 40.1594V52.5629L34.8722 54.021ZM62.3494 42.7916C63.1637 43.0567 63.8832 43.2271 64.5082 43.871C65.5687 44.9315 65.739 46.6168 64.8301 47.8855L63.8454 49.2868C62.7849 50.7828 65.5876 51.7296 65.4172 54.1346C66.8185 53.6801 68.144 53.1688 69.5453 52.5818V40.0454C67.1594 41.1059 64.7733 42.0152 62.3494 42.7916ZM55.1156 45.0261C52.3699 42.2803 47.9008 42.2803 45.136 45.0261C42.3902 47.7719 42.3902 52.241 45.136 55.0057C47.8818 57.7515 52.3509 57.7515 55.1156 55.0057C57.8804 52.241 57.8804 47.772 55.1156 45.0261ZM50.1353 41.0684C55.0778 41.0684 59.0735 45.064 59.0735 50.0254C59.0735 54.9679 55.0778 58.9636 50.1353 58.9636C45.1928 58.9636 41.1783 54.9679 41.1783 50.0254C41.1972 45.064 45.1928 41.0684 50.1353 41.0684ZM45.8178 49.855C45.1929 48.7756 46.8404 47.8288 47.4464 48.9082L48.6772 51.048L52.9569 46.7683C53.828 45.8972 55.1725 47.2227 54.3014 48.1127L49.1506 53.2635C48.7151 53.699 47.9766 53.6043 47.6546 53.0741L45.8178 49.855Z" fill="white"/>
</svg>
