<svg width="101" height="100" viewBox="0 0 101 100" fill="none" xmlns="http://www.w3.org/2000/svg">
<rect x="0.875" width="100" height="100" rx="50" fill="#0052CD"/>
<path d="M34.2083 44.1667C38.8108 44.1667 42.5417 40.4358 42.5417 35.8333C42.5417 31.2308 38.8108 27.5 34.2083 27.5C29.6058 27.5 25.875 31.2308 25.875 35.8333C25.875 40.4358 29.6058 44.1667 34.2083 44.1667ZM30.5692 35.1883L33.0108 37.1858L37.7567 31.9408L38.9925 33.0592L33.715 38.8925C33.5508 39.0742 33.3242 39.1667 33.0967 39.1667C32.9108 39.1667 32.7242 39.105 32.5692 38.9783L29.5133 36.4783L30.5692 35.1883Z" fill="white"/>
<path d="M74.2083 38.3333H70.875V30.8333H62.5417V38.3333H58.375V30.8333H50.0417V38.3333H46.7083V40H74.2083V53.3333H70.875V45.8333H62.5417V53.3333H58.375V45.8333H50.0417V53.3333H46.7083V55H74.2083V68.3333H70.875V60.8333H62.5417V68.3333H58.375V60.8333H50.0417V68.3333H46.7083V70H74.2083V75H75.875V25H74.2083V38.3333Z" fill="white"/>
<path d="M27.5417 63.3225V74.1667H40.875V63.8725C40.8158 61.5525 39.3467 60.0692 37.5242 60.0542L37.1117 60.0517C38.86 59.0433 40.0417 57.1592 40.0417 55C40.0417 51.7833 37.4242 49.1667 34.2083 49.1667C30.9925 49.1667 28.375 51.7833 28.375 55C28.375 57.1233 29.5192 58.98 31.2192 60H30.8875C29.0442 59.985 27.5417 61.4767 27.5417 63.3225ZM34.2083 70L32.5417 65.8333L33.9733 60.8217C34.0525 60.825 34.1292 60.8333 34.2083 60.8333C34.285 60.8333 34.3592 60.825 34.435 60.8217L35.875 65.8333L34.2083 70ZM30.0417 55C30.0417 54.9892 30.045 54.9792 30.045 54.9692C30.1883 54.9825 30.3283 55.0008 30.4833 55C32.4142 54.9933 33.7708 53.7592 34.2 53.3333C34.6292 53.7592 35.9858 54.9933 37.9167 55C38.0775 55.0008 38.2233 54.9825 38.3717 54.9675C38.3717 54.9783 38.375 54.9892 38.375 55C38.375 57.2975 36.5058 59.1667 34.2083 59.1667C31.9108 59.1667 30.0417 57.2975 30.0417 55Z" fill="white"/>
</svg>
