<svg width="101" height="100" viewBox="0 0 101 100" fill="none" xmlns="http://www.w3.org/2000/svg">
<rect x="0.625" width="100" height="100" rx="50" fill="#0052CD"/>
<path fill-rule="evenodd" clip-rule="evenodd" d="M50.6251 29.4599L33.9311 36.6142V50.8897C33.9311 60.9767 40.9129 68.7447 50.6251 70.8149C60.3372 68.7447 67.319 60.9767 67.319 50.8897V36.6142L50.6251 29.4599ZM50.6251 25L29.8301 33.9121V50.8897C29.8301 62.996 38.2738 72.4582 49.9665 74.8645L50.6251 75L51.2836 74.8645C62.9763 72.4582 71.4201 62.996 71.4201 50.8897V33.9121L50.6251 25ZM68.9861 50.8897C68.9861 61.8282 61.3651 70.2918 50.8131 72.4731C50.7003 72.4991 50.5803 72.5024 50.4592 72.4776C39.8967 70.304 32.2646 61.8365 32.2646 50.8897V36.0668H32.2663C32.2663 35.7439 32.4559 35.4365 32.7722 35.3021L50.2994 27.7901C50.5001 27.7049 50.734 27.6977 50.9502 27.7901L68.4243 35.2789C68.7505 35.3917 68.985 35.7019 68.985 36.0668V50.8897H68.9861Z" fill="white"/>
<path d="M61.9583 50.591V52.4112C62.5142 52.6066 62.9829 52.9925 63.2813 53.5005C63.5798 54.0085 63.6888 54.6058 63.5889 55.1864C63.4891 55.7671 63.1869 56.2937 62.7359 56.6728C62.2849 57.0519 61.7142 57.2591 61.125 57.2576H41.125C40.5358 57.2591 39.9651 57.0519 39.5141 56.6728C39.0631 56.2937 38.7609 55.7671 38.6611 55.1864C38.5612 54.6058 38.6702 54.0085 38.9687 53.5005C39.2671 52.9925 39.7358 52.6066 40.2917 52.4112V50.591C40.2927 48.4138 41.0045 46.2966 42.3189 44.561C43.6333 42.8254 45.4785 41.5664 47.5738 40.9753C47.4766 39.6946 48.8357 39.0147 51.125 39C53.414 39.0147 54.7721 39.6945 54.6762 40.9752C56.7715 41.5664 58.6166 42.8254 59.931 44.561C61.2454 46.2966 61.9573 48.4138 61.9583 50.591Z" fill="#0052CD"/>
<path fill-rule="evenodd" clip-rule="evenodd" d="M50.6251 29.4599L33.9311 36.6142V50.8897C33.9311 60.9767 40.9129 68.7447 50.6251 70.8149C60.3372 68.7447 67.319 60.9767 67.319 50.8897V36.6142L50.6251 29.4599ZM50.6251 25L29.8301 33.9121V50.8897C29.8301 62.996 38.2738 72.4582 49.9665 74.8645L50.6251 75L51.2836 74.8645C62.9763 72.4582 71.4201 62.996 71.4201 50.8897V33.9121L50.6251 25ZM68.9861 50.8897C68.9861 61.8282 61.3651 70.2918 50.8131 72.4731C50.7003 72.4991 50.5803 72.5024 50.4592 72.4776C39.8967 70.304 32.2646 61.8365 32.2646 50.8897V36.0668H32.2663C32.2663 35.7439 32.4559 35.4365 32.7722 35.3021L50.2994 27.7901C50.5001 27.7049 50.734 27.6977 50.9502 27.7901L68.4243 35.2789C68.7505 35.3917 68.985 35.7019 68.985 36.0668V50.8897H68.9861Z" stroke="white" stroke-width="0.5"/>
<path d="M61.9583 50.591V52.4112C62.5142 52.6066 62.9829 52.9925 63.2813 53.5005C63.5798 54.0085 63.6888 54.6058 63.5889 55.1864C63.4891 55.7671 63.1869 56.2937 62.7359 56.6728C62.2849 57.0519 61.7142 57.2591 61.125 57.2576H41.125C40.5358 57.2591 39.9651 57.0519 39.5141 56.6728C39.0631 56.2937 38.7609 55.7671 38.6611 55.1864C38.5612 54.6058 38.6702 54.0085 38.9687 53.5005C39.2671 52.9925 39.7358 52.6066 40.2917 52.4112V50.591C40.2927 48.4138 41.0045 46.2966 42.3189 44.561C43.6333 42.8254 45.4785 41.5664 47.5738 40.9753C47.4766 39.6946 48.8357 39.0147 51.125 39C53.414 39.0147 54.7721 39.6945 54.6762 40.9752C56.7715 41.5664 58.6166 42.8254 59.931 44.561C61.2454 46.2966 61.9573 48.4138 61.9583 50.591Z" stroke="white" stroke-width="0.5"/>
</svg>
