<svg width="51" height="50" viewBox="0 0 51 50" fill="none" xmlns="http://www.w3.org/2000/svg">
<path fill-rule="evenodd" clip-rule="evenodd" d="M28.0556 11.2222C37.0556 11.2222 44.3333 18.5 44.3333 27.5C44.3333 36.5 37.0556 43.7778 28.0556 43.7778C19.0556 43.7778 11.7778 36.5 11.7778 27.5C11.7778 18.5 19.0556 11.2222 28.0556 11.2222ZM28.0556 31.8889C30.5 31.8889 32.4444 29.9444 32.4444 27.5C32.4444 26.7222 32.2778 26.0556 31.8889 25.3889L36.3889 20.8889C36.8889 20.3889 36.8889 19.6111 36.3889 19.1111C35.8889 18.6111 35.1111 18.6111 34.6111 19.1111L30.0556 23.6667C29.4444 23.3333 28.7222 23.1667 28 23.1667C25.5556 23.1667 23.6111 25.1111 23.6111 27.5556C23.6667 29.9444 25.6667 31.8889 28.0556 31.8889ZM28.0556 25.6667C29.1111 25.6667 29.9444 26.5 29.9444 27.5556C29.9444 28.6111 29.1111 29.4444 28.0556 29.4444C27 29.4444 26.1667 28.6111 26.1667 27.5556C26.1667 26.5 27.0556 25.6667 28.0556 25.6667ZM45.9444 13.8333C48.8333 17.6111 50.5556 22.3333 50.5556 27.5C50.5556 39.9444 40.5 50 28.0556 50C18.7222 50 10.7222 44.3333 7.33333 36.2222H11.5C14.6667 42.1667 20.8889 46.2222 28.1111 46.2222C38.4444 46.2222 46.8889 37.8333 46.8889 27.4444C46.8889 17.0556 38.4444 8.72222 28.0556 8.72222C21.3889 8.72222 15.5 12.2222 12.1667 17.5H7.88889C11.3333 10.6111 18.1667 5.72222 26.1667 5.05556V3.72222H23.0556C22 3.72222 21.1667 2.88889 21.1667 1.83333C21.1667 0.777778 22 0 23.0556 0H33.0556C34.1111 0 34.9444 0.833333 34.9444 1.88889C34.9444 2.94444 34.1111 3.77778 33.0556 3.77778H29.9444V5.11111C33.3889 5.38889 36.6111 6.44444 39.5 8.11111L40.2778 7.16667C41.1667 6.11111 42.7222 6 43.7222 6.83333L46.5556 9.22222C47.6111 10.1111 47.7222 11.6667 46.8333 12.7222L45.9444 13.8333ZM6.16667 21.8889H1.77778C1.05556 21.8889 0.5 21.3333 0.5 20.6111C0.5 19.9444 1.05556 19.3889 1.77778 19.3889H6.16667C6.88889 19.3889 7.44444 19.9444 7.44444 20.6667C7.44444 21.3333 6.88889 21.8889 6.16667 21.8889ZM3.66667 26.8889C3.66667 26.2222 4.22222 25.6667 4.94444 25.6667H9.33333C10.0556 25.6667 10.6111 26.2222 10.6111 26.8889C10.6111 27.5556 10.0556 28.1111 9.33333 28.1111H4.94444C4.22222 28.1111 3.66667 27.5556 3.66667 26.8889ZM1.83333 31.2222H6.22222C6.94444 31.2222 7.5 31.7778 7.5 32.5C7.5 33.1667 6.94444 33.7778 6.22222 33.7778H1.83333C1.11111 33.7778 0.555556 33.2222 0.555556 32.5C0.555556 31.8333 1.11111 31.2222 1.83333 31.2222Z" fill="white"/>
</svg>
