<svg width="51" height="50" viewBox="0 0 51 50" fill="none" xmlns="http://www.w3.org/2000/svg">
<path d="M8.83333 19.1667C13.4358 19.1667 17.1667 15.4358 17.1667 10.8333C17.1667 6.23083 13.4358 2.5 8.83333 2.5C4.23083 2.5 0.5 6.23083 0.5 10.8333C0.5 15.4358 4.23083 19.1667 8.83333 19.1667ZM5.19417 10.1883L7.63583 12.1858L12.3817 6.94083L13.6175 8.05917L8.34 13.8925C8.17583 14.0742 7.94917 14.1667 7.72167 14.1667C7.53583 14.1667 7.34917 14.105 7.19417 13.9783L4.13833 11.4783L5.19417 10.1883Z" fill="#080808"/>
<path d="M48.8333 13.3333H45.5V5.83333H37.1667V13.3333H33V5.83333H24.6667V13.3333H21.3333V15H48.8333V28.3333H45.5V20.8333H37.1667V28.3333H33V20.8333H24.6667V28.3333H21.3333V30H48.8333V43.3333H45.5V35.8333H37.1667V43.3333H33V35.8333H24.6667V43.3333H21.3333V45H48.8333V50H50.5V0H48.8333V13.3333Z" fill="#080808"/>
<path d="M2.16667 38.3225V49.1667H15.5V38.8725C15.4408 36.5525 13.9717 35.0692 12.1492 35.0542L11.7367 35.0517C13.485 34.0433 14.6667 32.1592 14.6667 30C14.6667 26.7833 12.0492 24.1667 8.83333 24.1667C5.6175 24.1667 3 26.7833 3 30C3 32.1233 4.14417 33.98 5.84417 35H5.5125C3.66917 34.985 2.16667 36.4767 2.16667 38.3225ZM8.83333 45L7.16667 40.8333L8.59833 35.8217C8.6775 35.825 8.75417 35.8333 8.83333 35.8333C8.91 35.8333 8.98417 35.825 9.06 35.8217L10.5 40.8333L8.83333 45ZM4.66667 30C4.66667 29.9892 4.67 29.9792 4.67 29.9692C4.81333 29.9825 4.95333 30.0008 5.10833 30C7.03917 29.9933 8.39583 28.7592 8.825 28.3333C9.25417 28.7592 10.6108 29.9933 12.5417 30C12.7025 30.0008 12.8483 29.9825 12.9967 29.9675C12.9967 29.9783 13 29.9892 13 30C13 32.2975 11.1308 34.1667 8.83333 34.1667C6.53583 34.1667 4.66667 32.2975 4.66667 30Z" fill="#080808"/>
</svg>
