<svg width="101" height="100" viewBox="0 0 101 100" fill="none" xmlns="http://www.w3.org/2000/svg">
<rect x="0.625" width="100" height="100" rx="50" fill="#0052CD"/>
<path fill-rule="evenodd" clip-rule="evenodd" d="M50.795 29.4599L34.1011 36.6142V50.8897C34.1011 60.9767 41.0829 68.7447 50.795 70.8149C60.5071 68.7447 67.4889 60.9767 67.4889 50.8897V36.6142L50.795 29.4599ZM50.795 25L30 33.9121V50.8897C30 62.996 38.4437 72.4582 50.1365 74.8645L50.795 75L51.4535 74.8645C63.1463 72.4582 71.59 62.996 71.59 50.8897V33.9121L50.795 25ZM69.156 50.8897C69.156 61.8282 61.535 70.2918 50.983 72.4731C50.8702 72.4991 50.7502 72.5024 50.6291 72.4776C40.0666 70.304 32.4345 61.8365 32.4345 50.8897V36.0668H32.4362C32.4362 35.7439 32.6258 35.4365 32.9421 35.3021L50.4693 27.7901C50.67 27.7049 51.1201 27.7901 51.1201 27.7901L68.5942 35.2789C68.9205 35.3917 69.1549 35.7019 69.1549 36.0668V50.8897H69.156Z" fill="white"/>
<path d="M59.6667 54.2577V52.591C59.6673 51.5039 59.4538 50.4273 59.0383 49.4227C58.6229 48.4181 58.0136 47.5052 57.2454 46.736C56.2076 49.0983 55.8665 51.708 56.2624 54.2577H59.6667Z" fill="#0052CD"/>
<path d="M52.3726 42.9824C51.7781 42.7445 51.1396 42.6368 50.5 42.6667C49.8602 42.6369 49.2214 42.7446 48.6267 42.9824L49.3066 49.0245C49.3396 49.3179 49.4795 49.5888 49.6996 49.7855C49.9197 49.9822 50.2046 50.091 50.4998 50.091C50.795 50.091 51.0799 49.9822 51.3 49.7855C51.5201 49.5888 51.66 49.3179 51.693 49.0245L52.3726 42.9824Z" fill="#0052CD"/>
<path d="M48.5893 51.0281C48.0636 50.5583 47.7294 49.9114 47.6505 49.2108L47.139 44.6656C46.4126 44.8948 45.7212 45.2227 45.084 45.64C46.3878 48.3123 46.8531 51.3162 46.4189 54.2577H54.581C54.1466 51.3162 54.6119 48.3121 55.9158 45.6399C55.2787 45.2227 54.5873 44.8948 53.8611 44.6655L53.3499 49.2108C53.271 49.9114 52.9368 50.5583 52.4112 51.0281C51.8855 51.4979 51.2052 51.7576 50.5002 51.7576C49.7952 51.7576 49.1149 51.4979 48.5893 51.0281Z" fill="#0052CD"/>
<path d="M41.9616 49.4227C41.5462 50.4273 41.3327 51.5039 41.3333 52.591V54.2577H44.737C45.1331 51.7081 44.7922 49.0984 43.7546 46.7361C42.9863 47.5052 42.3771 48.4181 41.9616 49.4227Z" fill="#0052CD"/>
<path d="M40.5 57.591H60.5C60.721 57.591 60.933 57.5032 61.0893 57.3469C61.2455 57.1906 61.3333 56.9787 61.3333 56.7577C61.3333 56.5366 61.2455 56.3247 61.0893 56.1684C60.933 56.0121 60.721 55.9243 60.5 55.9243H40.5C40.279 55.9243 40.067 56.0121 39.9108 56.1684C39.7545 56.3247 39.6667 56.5366 39.6667 56.7577C39.6667 56.9787 39.7545 57.1906 39.9108 57.3469C40.067 57.5032 40.279 57.591 40.5 57.591Z" fill="#0052CD"/>
</svg>
