<svg width="70" height="70" viewBox="0 0 70 70" fill="none" xmlns="http://www.w3.org/2000/svg">
<rect width="70" height="70" rx="35" fill="#0052CD"/>
<path d="M49.7072 32.6501V37.2147C49.7072 37.7509 49.2102 37.8686 48.7524 38.0517L49.1317 40.0528C53.33 41.2822 56.9792 39.1765 60 36.3515L55.03 35.8807C54.5461 35.8414 54.2845 35.3313 54.5068 34.9259L57.5803 29.2627C55.2523 30.9891 52.7809 32.5063 49.7072 32.6501ZM21.2608 38.0255C20.803 37.8555 20.306 37.7378 20.306 37.2015V32.637C17.2456 32.5062 14.7736 30.9891 12.4197 29.2626L15.4932 34.9258C15.7155 35.3312 15.4539 35.8544 14.97 35.8805L10 36.3514C13.0212 39.1633 16.6834 41.2822 20.8817 40.0527L21.2608 38.0255ZM36.4061 26.6336L35.6998 25.6788C35.3336 25.208 34.6535 25.221 34.3135 25.6788L33.6072 26.6336C33.0448 27.3791 32.1162 27.6799 31.2268 27.4052L30.089 27.0521C29.5266 26.8821 28.9772 27.2875 28.9642 27.863L28.9511 29.0531C28.938 29.9817 28.3625 30.7795 27.4732 31.0803L26.3484 31.4596C25.786 31.6558 25.5898 32.3097 25.9168 32.7806L26.5969 33.7484C27.1331 34.5201 27.1331 35.488 26.5969 36.2465L25.9168 37.2144C25.5898 37.6721 25.786 38.3392 26.3484 38.5354L27.4732 38.9147C28.3495 39.2155 28.938 40.0002 28.9511 40.9419L28.9642 42.132C28.9772 42.7206 29.5266 43.1261 30.089 42.9429L31.2268 42.5898C32.1162 42.3151 33.0579 42.6159 33.6072 43.3614L34.3135 44.3162C34.6666 44.787 35.3467 44.787 35.6998 44.3162L36.4061 43.3614C36.9685 42.6159 37.8971 42.3151 38.7865 42.5898L39.9113 42.9429C40.4737 43.1129 41.023 42.7075 41.0361 42.132L41.0491 40.9419C41.0622 40.0133 41.6377 39.2155 42.5271 38.9147C42.7886 38.8231 43.7303 38.5354 43.9004 38.4046C44.2666 38.1169 44.3581 37.5937 44.0835 37.2144L43.4034 36.2466C42.8671 35.488 42.8671 34.5071 43.4034 33.7485L44.0835 32.7807C44.4104 32.3229 44.2142 31.6559 43.6519 31.4597L42.5271 31.0804C41.6508 30.7796 41.0753 29.9818 41.0492 29.0532L41.0361 27.863C41.0361 27.2875 40.4737 26.8821 39.9113 27.0521L38.7865 27.4053C37.9102 27.693 36.9685 27.3791 36.4061 26.6336ZM24.465 37.7771C24.4127 36.1684 26.283 35.5275 25.5506 34.5074L24.8705 33.5395C24.0204 32.3363 24.5828 30.7014 25.943 30.2306L26.2046 30.139C24.6482 29.6159 23.1179 28.9619 21.6138 28.2033V36.7701L24.465 37.7771ZM43.4427 30.0213C44.0051 30.2044 44.5021 30.3221 44.9337 30.7668C45.6662 31.4993 45.7838 32.6632 45.1561 33.5395L44.476 34.5074C43.7435 35.5406 45.6793 36.1945 45.5615 37.8556C46.5294 37.5417 47.4449 37.1886 48.4127 36.7831V28.1246C46.7648 28.8571 45.1168 29.4851 43.4427 30.0213ZM38.4466 31.5646C36.5501 29.6682 33.4635 29.6682 31.5539 31.5646C29.6575 33.4611 29.6575 36.5477 31.5539 38.4573C33.4504 40.3537 36.537 40.3537 38.4466 38.4573C40.3561 36.5477 40.3561 33.4611 38.4466 31.5646ZM35.0068 28.8311C38.4204 28.8311 41.1801 31.5908 41.1801 35.0175C41.1801 38.4311 38.4204 41.1908 35.0068 41.1908C31.5932 41.1908 28.8205 38.4311 28.8205 35.0175C28.8335 31.5908 31.5932 28.8311 35.0068 28.8311ZM32.0248 34.8998C31.5932 34.1543 32.7311 33.5004 33.1496 34.2458L33.9997 35.7237L36.9556 32.7679C37.5572 32.1662 38.4859 33.0818 37.8842 33.6965L34.3267 37.2539C34.0259 37.5548 33.5159 37.4894 33.2935 37.1232L32.0248 34.8998Z" fill="white"/>
</svg>
