<svg width="51" height="50" viewBox="0 0 51 50" fill="none" xmlns="http://www.w3.org/2000/svg">
<path fill-rule="evenodd" clip-rule="evenodd" d="M25.2082 0.00476465C26.5497 -0.0526727 27.6082 0.415032 28.6749 1.09197C30.0288 1.94943 31.555 3.64794 33.4381 4.72283C36.0843 6.23672 40.9911 4.14846 43.502 7.88189C44.9666 10.0563 45.0364 11.763 45.143 13.4492C45.262 15.2667 45.5779 16.9406 47.4405 19.4022C50.5216 23.4761 51.1616 26.188 49.5739 29.0147C48.4908 30.943 46.2138 32.0138 45.6846 33.2323C44.5645 35.8293 45.8036 37.7862 44.2692 40.814C43.2025 42.9146 41.5573 44.2972 39.3665 45.0028C37.5203 45.5977 35.6618 44.7362 34.1848 45.3598C31.5837 46.4511 29.6678 48.9906 27.5959 49.6348C26.7959 49.8809 26 50.004 25.2082 49.9999C24.4122 50.004 23.6163 49.885 22.8204 49.6348C20.7527 48.9906 18.8326 46.4552 16.2315 45.3598C14.7504 44.7362 12.896 45.5977 11.0498 45.0028C8.85901 44.2972 7.21384 42.9146 6.14715 40.814C4.60865 37.7862 5.85176 35.8293 4.72763 33.2323C4.19838 32.0138 1.9214 30.943 0.838295 29.0147C-0.749438 26.188 -0.105319 23.4761 2.97168 19.4022C4.8343 16.9406 5.1502 15.2667 5.26918 13.4492C5.37995 11.763 5.44559 10.0563 6.91025 7.88189C9.42108 4.14846 14.3279 6.23672 16.9741 4.72283C18.8572 3.64794 20.3793 1.94943 21.7373 1.09197C22.8081 0.415032 23.8666 -0.0526727 25.2082 0.00476465ZM20.8552 22.1141L24.0799 25.1828L29.6308 19.5417C30.1806 18.9837 30.5252 18.5365 31.2022 19.234L33.4012 21.4863C34.1233 22.2002 34.0863 22.6187 33.4053 23.2833L25.3353 31.2056C23.8994 32.6128 24.1497 32.6989 22.6932 31.2548L17.1546 25.7449C16.851 25.4167 16.8838 25.0844 17.2162 24.7562L19.768 22.1099C20.1496 21.7079 20.4573 21.7325 20.8552 22.1141ZM25.1343 11.3117C32.9089 11.3117 39.2065 17.6134 39.2065 25.3839C39.2065 33.1584 32.9048 39.456 25.1343 39.456C17.3597 39.456 11.0621 33.1543 11.0621 25.3839C11.0621 17.6093 17.3638 11.3117 25.1343 11.3117Z" fill="white"/>
</svg>
