<svg width="22" height="22" viewBox="0 0 22 22" fill="none" xmlns="http://www.w3.org/2000/svg">
<path fill-rule="evenodd" clip-rule="evenodd" d="M3.78577 3.48322C3.78577 2.32898 4.69704 1.39329 5.82114 1.39329C6.94523 1.39329 7.8565 2.32898 7.8565 3.48322C7.8565 4.63745 6.94523 5.57315 5.82114 5.57315C4.69704 5.57315 3.78577 4.63745 3.78577 3.48322ZM2.52831 4.32383H0V2.93055H2.47133C2.72923 1.26946 4.13079 0 5.82114 0C7.51148 0 8.91304 1.26946 9.17092 2.93055H22V4.32383H9.11397C8.74771 5.84148 7.41237 6.96643 5.82114 6.96643C4.2299 6.96643 2.89456 5.84148 2.52831 4.32383ZM16.7397 7.58877C15.0986 7.58877 13.7296 8.78544 13.4153 10.3753H0V11.7686H13.4153C13.7296 13.3585 15.0986 14.5552 16.7397 14.5552C18.3809 14.5552 19.7498 13.3585 20.0641 11.7686H22V10.3753H20.0641C19.7498 8.78544 18.3809 7.58877 16.7397 7.58877ZM12.9675 19.2134H22V17.8201H12.9675C12.6532 16.2302 11.2842 15.0336 9.64309 15.0336C8.00196 15.0336 6.633 16.2302 6.31867 17.8201H0V19.2134H6.31867C6.633 20.8033 8.00196 22 9.64309 22C11.2842 22 12.6532 20.8033 12.9675 19.2134ZM16.7397 8.98206C15.6156 8.98206 14.7044 9.91775 14.7044 11.072C14.7044 12.2262 15.6156 13.1619 16.7397 13.1619C17.8638 13.1619 18.7751 12.2262 18.7751 11.072C18.7751 9.91775 17.8638 8.98206 16.7397 8.98206ZM7.60773 18.5168C7.60773 17.3625 8.51899 16.4269 9.64309 16.4269C10.7672 16.4269 11.6785 17.3625 11.6785 18.5168C11.6785 19.671 10.7672 20.6067 9.64309 20.6067C8.51899 20.6067 7.60773 19.671 7.60773 18.5168Z" fill="white"/>
</svg>
