<svg width="27" height="20" viewBox="0 0 27 20" fill="none" xmlns="http://www.w3.org/2000/svg">
<path d="M19.5889 5.0854C19.5888 4.86432 19.6544 4.64819 19.7773 4.4644C19.9001 4.2806 20.0748 4.13741 20.2791 4.05294C20.4834 3.96847 20.7082 3.94652 20.925 3.98989C21.1418 4.03326 21.3408 4.13998 21.4969 4.29654C21.6008 4.4 21.6832 4.52293 21.7395 4.65829C21.7958 4.79365 21.8249 4.93879 21.825 5.0854V14.9255C21.8255 15.1467 21.7603 15.3632 21.6376 15.5473C21.5148 15.7314 21.3402 15.875 21.1358 15.9597C20.9314 16.0444 20.7065 16.0666 20.4895 16.0233C20.2725 15.98 20.0732 15.8732 19.917 15.7165C19.813 15.6131 19.7305 15.4902 19.6742 15.3548C19.6179 15.2194 19.5889 15.0743 19.5889 14.9276V5.0854ZM0 3.95753C2.13002e-05 3.81091 0.029023 3.66573 0.085338 3.53035C0.141653 3.39497 0.224171 3.27206 0.328147 3.16867C0.484776 3.01304 0.683943 2.90721 0.900581 2.86451C1.11722 2.82181 1.34165 2.84415 1.54562 2.92871C1.74959 3.01327 1.92399 3.15628 2.04687 3.33974C2.16975 3.52319 2.23562 3.7389 2.23618 3.9597V16.0425C2.23576 16.3392 2.11776 16.6236 1.90803 16.8335C1.75141 16.9891 1.55224 17.095 1.3356 17.1377C1.11896 17.1804 0.894533 17.158 0.690561 17.0735C0.486589 16.9889 0.312188 16.8459 0.189309 16.6624C0.06643 16.479 0.00056365 16.2633 0 16.0425L0 3.95753ZM4.90917 1.11504C4.90902 0.968583 4.93774 0.823533 4.99367 0.688178C5.0496 0.552823 5.13165 0.429815 5.23514 0.326182C5.39135 0.170362 5.5902 0.0642938 5.80662 0.0213562C6.02304 -0.0215813 6.24733 0.000535582 6.45119 0.084917C6.65506 0.169298 6.82936 0.312165 6.95213 0.495494C7.07489 0.678823 7.14061 0.894402 7.141 1.11504V18.8828C7.14104 19.1036 7.07563 19.3195 6.95303 19.5032C6.83043 19.6868 6.65615 19.83 6.45219 19.9147C6.24824 19.9993 6.02378 20.0216 5.80715 19.9788C5.59053 19.9359 5.39148 19.8298 5.23514 19.6738C5.13146 19.5703 5.04928 19.4473 4.99333 19.312C4.93739 19.1766 4.90878 19.0315 4.90917 18.885V1.11504ZM14.6992 7.37157C14.6991 7.22511 14.7278 7.08006 14.7838 6.9447C14.8397 6.80935 14.9217 6.68634 15.0252 6.58271C15.2346 6.37383 15.5183 6.25653 15.8141 6.25653C16.1098 6.25653 16.3935 6.37383 16.6029 6.58271C16.8117 6.79214 16.929 7.07583 16.9289 7.37157V12.6371C16.9293 12.9336 16.8121 13.2181 16.6029 13.4282C16.4994 13.5318 16.3764 13.6141 16.2411 13.6702C16.1057 13.7264 15.9606 13.7552 15.8141 13.7552C15.6675 13.7552 15.5225 13.7264 15.3871 13.6702C15.2517 13.6141 15.1288 13.5318 15.0252 13.4282C14.9215 13.3247 14.8394 13.2017 14.7834 13.0663C14.7275 12.9309 14.6989 12.7858 14.6992 12.6393V7.37157ZM9.80747 3.96405C9.80744 3.8171 9.83641 3.67158 9.89272 3.53584C9.94903 3.4001 10.0316 3.2768 10.1356 3.17302C10.2922 3.01738 10.4914 2.91156 10.708 2.86886C10.9247 2.82616 11.1491 2.84849 11.3531 2.93306C11.5571 3.01762 11.7315 3.16063 11.8543 3.34408C11.9772 3.52754 12.0431 3.74325 12.0436 3.96405V16.049C12.0436 16.1956 12.0146 16.3408 11.9583 16.4762C11.902 16.6116 11.8195 16.7345 11.7155 16.8378C11.5589 16.9935 11.3597 17.0993 11.1431 17.142C10.9264 17.1847 10.702 17.1624 10.498 17.0778C10.2941 16.9932 10.1197 16.8502 9.99678 16.6668C9.8739 16.4833 9.80803 16.2676 9.80747 16.0468V3.96405ZM24.4915 2.60583C24.4912 2.46018 24.5196 2.31591 24.5752 2.18128C24.6307 2.04665 24.7123 1.92432 24.8153 1.82132L24.8392 1.79958C24.9417 1.69915 25.063 1.62 25.1962 1.56669C25.3293 1.51338 25.4718 1.48698 25.6152 1.489C25.7587 1.49102 25.9003 1.52142 26.0319 1.57846C26.1635 1.6355 26.2826 1.71804 26.3822 1.82132C26.5885 2.03025 26.7041 2.31217 26.7038 2.60583V17.3833C26.7037 17.6775 26.5882 17.96 26.3822 18.17L26.3582 18.1917C26.2558 18.2922 26.1345 18.3713 26.0013 18.4246C25.8681 18.4779 25.7257 18.5043 25.5823 18.5023C25.4388 18.5003 25.2972 18.4699 25.1655 18.4129C25.0339 18.3558 24.9149 18.2733 24.8153 18.17C24.6078 17.9607 24.4914 17.678 24.4915 17.3833V2.60583Z" fill="#0052CD"/>
</svg>
