<svg width="22" height="22" viewBox="0 0 22 22" fill="none" xmlns="http://www.w3.org/2000/svg">
<path d="M20.6537 19.0088C20.4624 19.0088 20.3074 19.1647 20.3074 19.3551V20.3074H19.3551C19.1638 20.3074 19.0088 20.4632 19.0088 20.6537C19.0088 20.8442 19.1647 21 19.3551 21H20.6537C20.845 21 21 20.8442 21 20.6537V19.3551C21.0009 19.1647 20.845 19.0088 20.6537 19.0088Z" fill="#0052CD"/>
<path d="M16.9683 20.3074H14.5806C14.3893 20.3074 14.2344 20.4632 14.2344 20.6537C14.2344 20.8442 14.3902 21 14.5806 21H16.9683C17.1596 21 17.3146 20.8442 17.3146 20.6537C17.3146 20.4632 17.1588 20.3074 16.9683 20.3074Z" fill="#0052CD"/>
<path d="M12.1938 20.3074H9.80616C9.61484 20.3074 9.45987 20.4632 9.45987 20.6537C9.45987 20.8442 9.61484 21 9.80616 21H12.1938C12.3852 21 12.5401 20.8442 12.5401 20.6537C12.5401 20.4632 12.3852 20.3074 12.1938 20.3074Z" fill="#0052CD"/>
<path d="M7.41936 20.3074H5.03169C4.84036 20.3074 4.6854 20.4632 4.6854 20.6537C4.6854 20.8442 4.84036 21 5.03169 21H7.41849C7.60982 21 7.76478 20.8442 7.76478 20.6537C7.76478 20.4632 7.60982 20.3074 7.41936 20.3074Z" fill="#0052CD"/>
<path d="M2.64488 20.3074H1.69258V19.3551C1.69258 19.1638 1.53762 19.0088 1.34629 19.0088C1.15496 19.0088 1 19.1647 1 19.3551V20.6537C1 20.845 1.15496 21 1.34629 21H2.64488C2.8362 21 2.99117 20.8442 2.99117 20.6537C2.99117 20.4632 2.8362 20.3074 2.64488 20.3074Z" fill="#0052CD"/>
<path d="M1.34629 17.3146C1.53762 17.3146 1.69258 17.1588 1.69258 16.9683V14.5806C1.69258 14.3893 1.53762 14.2344 1.34629 14.2344C1.15496 14.2344 1 14.3902 1 14.5806V16.9683C1 17.1588 1.15496 17.3146 1.34629 17.3146Z" fill="#0052CD"/>
<path d="M1.34629 7.76565C1.53762 7.76565 1.69258 7.61068 1.69258 7.41936V5.03169C1.69258 4.84036 1.53762 4.6854 1.34629 4.6854C1.15496 4.6854 1 4.84036 1 5.03169V7.41849C1 7.60982 1.15496 7.76565 1.34629 7.76565Z" fill="#0052CD"/>
<path d="M1.34629 12.5401C1.53762 12.5401 1.69258 12.3843 1.69258 12.1938V9.80616C1.69258 9.61484 1.53762 9.45987 1.34629 9.45987C1.15496 9.45987 1 9.61484 1 9.80616V12.1938C1 12.3852 1.15496 12.5401 1.34629 12.5401Z" fill="#0052CD"/>
<path d="M2.64488 1H1.34629C1.15496 1 1 1.15496 1 1.34629V2.64488C1 2.8362 1.15496 2.99117 1.34629 2.99117C1.53762 2.99117 1.69258 2.8362 1.69258 2.64488V1.69258H2.64488C2.8362 1.69258 2.99117 1.53762 2.99117 1.34629C2.99117 1.15496 2.8362 1 2.64488 1Z" fill="#0052CD"/>
<path d="M5.03169 1.69258H7.41849C7.60982 1.69258 7.76478 1.53762 7.76478 1.34629C7.76478 1.15496 7.60982 1 7.41849 1H5.03169C4.84036 1 4.6854 1.15496 4.6854 1.34629C4.6854 1.53762 4.84123 1.69258 5.03169 1.69258Z" fill="#0052CD"/>
<path d="M9.80616 1.69258H12.1938C12.3852 1.69258 12.5401 1.53762 12.5401 1.34629C12.5401 1.15496 12.3843 1 12.1938 1H9.80616C9.61484 1 9.45987 1.15496 9.45987 1.34629C9.45987 1.53762 9.61484 1.69258 9.80616 1.69258Z" fill="#0052CD"/>
<path d="M14.5806 1.69258H16.9683C17.1596 1.69258 17.3146 1.53762 17.3146 1.34629C17.3146 1.15496 17.1588 1 16.9683 1H14.5806C14.3893 1 14.2344 1.15496 14.2344 1.34629C14.2344 1.53762 14.3893 1.69258 14.5806 1.69258Z" fill="#0052CD"/>
<path d="M20.6537 1H19.3551C19.1638 1 19.0088 1.15496 19.0088 1.34629C19.0088 1.53762 19.1647 1.69258 19.3551 1.69258H20.3074V2.64488C20.3074 2.8362 20.4632 2.99117 20.6537 2.99117C20.8442 2.99117 21 2.8362 21 2.64488V1.34629C21.0009 1.15496 20.845 1 20.6537 1Z" fill="#0052CD"/>
<path d="M20.6537 4.68626C20.4624 4.68626 20.3074 4.84123 20.3074 5.03255V7.41936C20.3074 7.61068 20.4632 7.76565 20.6537 7.76565C20.8442 7.76565 21 7.61068 21 7.41936V5.03169C21.0009 4.84123 20.845 4.68626 20.6537 4.68626Z" fill="#0052CD"/>
<path d="M20.6537 9.45987C20.4624 9.45987 20.3074 9.61484 20.3074 9.80616V12.1938C20.3074 12.3852 20.4632 12.5401 20.6537 12.5401C20.8442 12.5401 21 12.3843 21 12.1938V9.80616C21.0009 9.61484 20.845 9.45987 20.6537 9.45987Z" fill="#0052CD"/>
<path d="M20.6537 14.2335C20.4624 14.2335 20.3074 14.3893 20.3074 14.5798V16.9674C20.3074 17.1588 20.4632 17.3137 20.6537 17.3137C20.8442 17.3137 21 17.1579 21 16.9674V14.5798C21.0009 14.3893 20.845 14.2335 20.6537 14.2335Z" fill="#0052CD"/>
<path d="M4.65077 7.42628C4.84209 7.42628 4.99706 7.27132 4.99706 7.07999V5.02822H7.04883C7.24015 5.02822 7.39512 4.87326 7.39512 4.68193C7.39512 4.49061 7.24015 4.33564 7.04883 4.33564H4.65077C4.45944 4.33564 4.30448 4.49061 4.30448 4.68193V7.07999C4.30448 7.27045 4.45944 7.42628 4.65077 7.42628Z" fill="#0052CD"/>
<path d="M7.39425 17.3181C7.39425 17.1267 7.23929 16.9718 7.04796 16.9718H4.99619V14.9209C4.99619 14.7295 4.84123 14.5746 4.6499 14.5746C4.45858 14.5746 4.30361 14.7304 4.30361 14.9209V17.3189C4.30361 17.5103 4.45858 17.6652 4.6499 17.6652H7.04796C7.23929 17.6644 7.39425 17.5094 7.39425 17.3181Z" fill="#0052CD"/>
<path d="M17.3501 14.5737C17.1588 14.5737 17.0038 14.7295 17.0038 14.92V16.9709H14.9529C14.7616 16.9709 14.6066 17.1267 14.6066 17.3172C14.6066 17.5077 14.7624 17.6635 14.9529 17.6635H17.351C17.5423 17.6635 17.6973 17.5077 17.6973 17.3172V14.9191C17.6964 14.7295 17.5414 14.5737 17.3501 14.5737Z" fill="#0052CD"/>
<path d="M16.5008 6.00303C16.6359 5.86798 16.6359 5.64895 16.5008 5.5139C16.3658 5.37884 16.1459 5.37884 16.0108 5.5139L12.9418 8.58289H9.07116L6.00303 5.51303C5.86798 5.37798 5.64895 5.37798 5.5139 5.51303C5.37884 5.64808 5.37884 5.86711 5.5139 6.00216L8.58289 9.07116V12.9271L5.5139 15.9961C5.37884 16.1312 5.37884 16.3511 5.5139 16.4861C5.58142 16.5536 5.66973 16.5874 5.7589 16.5874C5.84806 16.5874 5.93637 16.5536 6.0039 16.4861L9.07289 13.4171H12.9288L15.9978 16.4861C16.0654 16.5536 16.1545 16.5874 16.2428 16.5874C16.3311 16.5874 16.4203 16.5536 16.4878 16.4861C16.6229 16.3511 16.6229 16.1312 16.4878 15.9961L13.4188 12.9271V9.08588L16.5008 6.00303ZM9.27461 9.27461H12.7245V12.7245H9.27461V9.27461Z" fill="#0052CD"/>
<path d="M17.364 4.33564H14.9668C14.7754 4.33564 14.6205 4.49061 14.6205 4.68193C14.6205 4.87326 14.7763 5.02822 14.9668 5.02822H17.0168V7.07999C17.0168 7.27132 17.1726 7.42628 17.3631 7.42628C17.5535 7.42628 17.7094 7.27132 17.7094 7.07999V4.68193C17.7102 4.49061 17.5544 4.33564 17.364 4.33564Z" fill="#0052CD"/>
<path d="M20.6537 19.0088C20.4624 19.0088 20.3074 19.1647 20.3074 19.3551V20.3074H19.3551C19.1638 20.3074 19.0088 20.4632 19.0088 20.6537C19.0088 20.8442 19.1647 21 19.3551 21H20.6537C20.845 21 21 20.8442 21 20.6537V19.3551C21.0009 19.1647 20.845 19.0088 20.6537 19.0088Z" stroke="#0052CD"/>
<path d="M16.9683 20.3074H14.5806C14.3893 20.3074 14.2344 20.4632 14.2344 20.6537C14.2344 20.8442 14.3902 21 14.5806 21H16.9683C17.1596 21 17.3146 20.8442 17.3146 20.6537C17.3146 20.4632 17.1588 20.3074 16.9683 20.3074Z" stroke="#0052CD"/>
<path d="M12.1938 20.3074H9.80616C9.61484 20.3074 9.45987 20.4632 9.45987 20.6537C9.45987 20.8442 9.61484 21 9.80616 21H12.1938C12.3852 21 12.5401 20.8442 12.5401 20.6537C12.5401 20.4632 12.3852 20.3074 12.1938 20.3074Z" stroke="#0052CD"/>
<path d="M7.41936 20.3074H5.03169C4.84036 20.3074 4.6854 20.4632 4.6854 20.6537C4.6854 20.8442 4.84036 21 5.03169 21H7.41849C7.60982 21 7.76478 20.8442 7.76478 20.6537C7.76478 20.4632 7.60982 20.3074 7.41936 20.3074Z" stroke="#0052CD"/>
<path d="M2.64488 20.3074H1.69258V19.3551C1.69258 19.1638 1.53762 19.0088 1.34629 19.0088C1.15496 19.0088 1 19.1647 1 19.3551V20.6537C1 20.845 1.15496 21 1.34629 21H2.64488C2.8362 21 2.99117 20.8442 2.99117 20.6537C2.99117 20.4632 2.8362 20.3074 2.64488 20.3074Z" stroke="#0052CD"/>
<path d="M1.34629 17.3146C1.53762 17.3146 1.69258 17.1588 1.69258 16.9683V14.5806C1.69258 14.3893 1.53762 14.2344 1.34629 14.2344C1.15496 14.2344 1 14.3902 1 14.5806V16.9683C1 17.1588 1.15496 17.3146 1.34629 17.3146Z" stroke="#0052CD"/>
<path d="M1.34629 7.76565C1.53762 7.76565 1.69258 7.61068 1.69258 7.41936V5.03169C1.69258 4.84036 1.53762 4.6854 1.34629 4.6854C1.15496 4.6854 1 4.84036 1 5.03169V7.41849C1 7.60982 1.15496 7.76565 1.34629 7.76565Z" stroke="#0052CD"/>
<path d="M1.34629 12.5401C1.53762 12.5401 1.69258 12.3843 1.69258 12.1938V9.80616C1.69258 9.61484 1.53762 9.45987 1.34629 9.45987C1.15496 9.45987 1 9.61484 1 9.80616V12.1938C1 12.3852 1.15496 12.5401 1.34629 12.5401Z" stroke="#0052CD"/>
<path d="M2.64488 1H1.34629C1.15496 1 1 1.15496 1 1.34629V2.64488C1 2.8362 1.15496 2.99117 1.34629 2.99117C1.53762 2.99117 1.69258 2.8362 1.69258 2.64488V1.69258H2.64488C2.8362 1.69258 2.99117 1.53762 2.99117 1.34629C2.99117 1.15496 2.8362 1 2.64488 1Z" stroke="#0052CD"/>
<path d="M5.03169 1.69258H7.41849C7.60982 1.69258 7.76478 1.53762 7.76478 1.34629C7.76478 1.15496 7.60982 1 7.41849 1H5.03169C4.84036 1 4.6854 1.15496 4.6854 1.34629C4.6854 1.53762 4.84123 1.69258 5.03169 1.69258Z" stroke="#0052CD"/>
<path d="M9.80616 1.69258H12.1938C12.3852 1.69258 12.5401 1.53762 12.5401 1.34629C12.5401 1.15496 12.3843 1 12.1938 1H9.80616C9.61484 1 9.45987 1.15496 9.45987 1.34629C9.45987 1.53762 9.61484 1.69258 9.80616 1.69258Z" stroke="#0052CD"/>
<path d="M14.5806 1.69258H16.9683C17.1596 1.69258 17.3146 1.53762 17.3146 1.34629C17.3146 1.15496 17.1588 1 16.9683 1H14.5806C14.3893 1 14.2344 1.15496 14.2344 1.34629C14.2344 1.53762 14.3893 1.69258 14.5806 1.69258Z" stroke="#0052CD"/>
<path d="M20.6537 1H19.3551C19.1638 1 19.0088 1.15496 19.0088 1.34629C19.0088 1.53762 19.1647 1.69258 19.3551 1.69258H20.3074V2.64488C20.3074 2.8362 20.4632 2.99117 20.6537 2.99117C20.8442 2.99117 21 2.8362 21 2.64488V1.34629C21.0009 1.15496 20.845 1 20.6537 1Z" stroke="#0052CD"/>
<path d="M20.6537 4.68626C20.4624 4.68626 20.3074 4.84123 20.3074 5.03255V7.41936C20.3074 7.61068 20.4632 7.76565 20.6537 7.76565C20.8442 7.76565 21 7.61068 21 7.41936V5.03169C21.0009 4.84123 20.845 4.68626 20.6537 4.68626Z" stroke="#0052CD"/>
<path d="M20.6537 9.45987C20.4624 9.45987 20.3074 9.61484 20.3074 9.80616V12.1938C20.3074 12.3852 20.4632 12.5401 20.6537 12.5401C20.8442 12.5401 21 12.3843 21 12.1938V9.80616C21.0009 9.61484 20.845 9.45987 20.6537 9.45987Z" stroke="#0052CD"/>
<path d="M20.6537 14.2335C20.4624 14.2335 20.3074 14.3893 20.3074 14.5798V16.9674C20.3074 17.1588 20.4632 17.3137 20.6537 17.3137C20.8442 17.3137 21 17.1579 21 16.9674V14.5798C21.0009 14.3893 20.845 14.2335 20.6537 14.2335Z" stroke="#0052CD"/>
<path d="M4.65077 7.42628C4.84209 7.42628 4.99706 7.27132 4.99706 7.07999V5.02822H7.04883C7.24015 5.02822 7.39512 4.87326 7.39512 4.68193C7.39512 4.49061 7.24015 4.33564 7.04883 4.33564H4.65077C4.45944 4.33564 4.30448 4.49061 4.30448 4.68193V7.07999C4.30448 7.27045 4.45944 7.42628 4.65077 7.42628Z" stroke="#0052CD"/>
<path d="M7.39425 17.3181C7.39425 17.1267 7.23929 16.9718 7.04796 16.9718H4.99619V14.9209C4.99619 14.7295 4.84123 14.5746 4.6499 14.5746C4.45858 14.5746 4.30361 14.7304 4.30361 14.9209V17.3189C4.30361 17.5103 4.45858 17.6652 4.6499 17.6652H7.04796C7.23929 17.6644 7.39425 17.5094 7.39425 17.3181Z" stroke="#0052CD"/>
<path d="M17.3501 14.5737C17.1588 14.5737 17.0038 14.7295 17.0038 14.92V16.9709H14.9529C14.7616 16.9709 14.6066 17.1267 14.6066 17.3172C14.6066 17.5077 14.7624 17.6635 14.9529 17.6635H17.351C17.5423 17.6635 17.6973 17.5077 17.6973 17.3172V14.9191C17.6964 14.7295 17.5414 14.5737 17.3501 14.5737Z" stroke="#0052CD"/>
<path d="M16.5008 6.00303C16.6359 5.86798 16.6359 5.64895 16.5008 5.5139C16.3658 5.37884 16.1459 5.37884 16.0108 5.5139L12.9418 8.58289H9.07116L6.00303 5.51303C5.86798 5.37798 5.64895 5.37798 5.5139 5.51303C5.37884 5.64808 5.37884 5.86711 5.5139 6.00216L8.58289 9.07116V12.9271L5.5139 15.9961C5.37884 16.1312 5.37884 16.3511 5.5139 16.4861C5.58142 16.5536 5.66973 16.5874 5.7589 16.5874C5.84806 16.5874 5.93637 16.5536 6.0039 16.4861L9.07289 13.4171H12.9288L15.9978 16.4861C16.0654 16.5536 16.1545 16.5874 16.2428 16.5874C16.3311 16.5874 16.4203 16.5536 16.4878 16.4861C16.6229 16.3511 16.6229 16.1312 16.4878 15.9961L13.4188 12.9271V9.08588L16.5008 6.00303ZM9.27461 9.27461H12.7245V12.7245H9.27461V9.27461Z" stroke="#0052CD"/>
<path d="M17.364 4.33564H14.9668C14.7754 4.33564 14.6205 4.49061 14.6205 4.68193C14.6205 4.87326 14.7763 5.02822 14.9668 5.02822H17.0168V7.07999C17.0168 7.27132 17.1726 7.42628 17.3631 7.42628C17.5535 7.42628 17.7094 7.27132 17.7094 7.07999V4.68193C17.7102 4.49061 17.5544 4.33564 17.364 4.33564Z" stroke="#0052CD"/>
</svg>
