<svg width="18" height="20" viewBox="0 0 18 20"  >
<path fill-rule="evenodd" clip-rule="evenodd" d="M8.83457 0C6.43334 0 4.48675 1.94659 4.48675 4.34783V5.21739H1.13712L0 20H17.6691L16.5321 5.21739H13.1824V4.34783C13.1824 1.94659 11.2358 0 8.83457 0ZM11.4433 6.95652V8.69565C11.4433 9.17591 11.8326 9.56522 12.3128 9.56522C12.7931 9.56522 13.1824 9.17591 13.1824 8.69565V6.95652H14.9215L15.7911 18.2609H1.87804L2.74761 6.95652H4.48675V8.69565C4.48675 9.17591 4.87607 9.56522 5.35631 9.56522C5.83656 9.56522 6.22588 9.17591 6.22588 8.69565V6.95652H11.4433ZM11.4433 5.21739V4.34783C11.4433 2.90709 10.2754 1.73913 8.83457 1.73913C7.39379 1.73913 6.22588 2.90709 6.22588 4.34783V5.21739H11.4433Z" />
</svg>
