<svg width="20" height="20" viewBox="0 0 20 20" xmlns="http://www.w3.org/2000/svg">
<path d="M9.99832 7.49936L10.6484 7.58638L11.2525 7.83721L11.7695 8.23138L12.1637 8.7484L12.4145 9.35244L12.5015 9.99744L12.4145 10.6476L12.1637 11.2516L11.7695 11.7686L11.2525 12.1628L10.6484 12.4136L9.99832 12.5006L9.35332 12.4136L8.74928 12.1628L8.23226 11.7686L7.8381 11.2516L7.58726 10.6476L7.50024 9.99744L7.58726 9.35244L7.83298 8.7484L8.23226 8.23138L8.74928 7.83721L9.35332 7.58638L9.99832 7.49936Z" />
<path d="M2.5032 3.34978e-05L3.1482 0.0870567L3.75224 0.337889L4.26926 0.732053L4.66343 1.24907L4.91426 1.85312L5.00128 2.50323L4.91426 3.14823L4.66343 3.75227L4.26926 4.26929L3.75224 4.66346L3.1482 4.91429L2.5032 5.00131L1.85308 4.91429L1.24904 4.66346L0.732019 4.26929L0.337855 3.75227L0.0870232 3.14823L0 2.50323L0.0870232 1.85312L0.337855 1.24907L0.732019 0.732053L1.24904 0.337889L1.85308 0.0870567L2.5032 3.34978e-05Z" />
<path d="M2.5032 7.49936L3.1482 7.58638L3.75224 7.83721L4.26926 8.23138L4.66343 8.7484L4.91426 9.35244L5.00128 9.99744L4.91426 10.6476L4.66343 11.2516L4.26926 11.7686L3.75224 12.1628L3.1482 12.4136L2.5032 12.5006L1.85308 12.4136L1.24904 12.1628L0.732019 11.7686L0.337855 11.2516L0.0870232 10.6476L0 9.99744L0.0870232 9.35244L0.337855 8.7484L0.732019 8.23138L1.24904 7.83721L1.85308 7.58638L2.5032 7.49936Z" />
<path d="M17.4972 0L18.1473 0.0870232L18.7514 0.337855L19.2684 0.732019L19.6626 1.24904L19.9134 1.85308L20.0004 2.5032L19.9134 3.1482L19.6626 3.75224L19.2684 4.26926L18.7514 4.66343L18.1473 4.91426L17.4972 5.00128L16.8522 4.91426L16.2482 4.66343L15.7312 4.26926L15.3319 3.75224L15.0862 3.1482L14.9991 2.5032L15.0862 1.85308L15.3319 1.24904L15.7312 0.732019L16.2482 0.337855L16.8522 0.0870232L17.4972 0Z" />
<path d="M9.99832 3.34978e-05L10.6484 0.0870567L11.2525 0.337889L11.7695 0.732053L12.1637 1.24907L12.4145 1.85312L12.5015 2.50323L12.4145 3.14823L12.1637 3.75227L11.7695 4.26929L11.2525 4.66346L10.6484 4.91429L9.99832 5.00131L9.35332 4.91429L8.74928 4.66346L8.23226 4.26929L7.8381 3.75227L7.58726 3.14823L7.50024 2.50323L7.58726 1.85312L7.83298 1.24907L8.23226 0.732053L8.74928 0.337889L9.35332 0.0870567L9.99832 3.34978e-05Z" />
<path d="M17.4972 14.9987L18.1473 15.0857L18.7514 15.3315L19.2684 15.7307L19.6626 16.2478L19.9134 16.8518L20.0004 17.4968L19.9134 18.1469L19.6626 18.751L19.2684 19.268L18.7514 19.6621L18.1473 19.913L17.4972 20L16.8522 19.913L16.2482 19.6621L15.7312 19.268L15.3319 18.751L15.0862 18.1469L14.9991 17.4968L15.0862 16.8518L15.3319 16.2478L15.7312 15.7307L16.2482 15.3315L16.8522 15.0857L17.4972 14.9987Z" />
<path d="M17.4972 7.49936L18.1473 7.58638L18.7514 7.83722L19.2684 8.23138L19.6626 8.7484L19.9134 9.35245L20.0004 9.99744L19.9134 10.6476L19.6626 11.2516L19.2684 11.7686L18.7514 12.1628L18.1473 12.4136L17.4972 12.5006L16.8522 12.4136L16.2482 12.1628L15.7312 11.7686L15.3319 11.2516L15.0862 10.6476L14.9991 9.99744L15.0862 9.35245L15.3319 8.7484L15.7312 8.23138L16.2482 7.83722L16.8522 7.58638L17.4972 7.49936Z" />
<path d="M2.5032 14.9987L3.1482 15.0857L3.75224 15.3314L4.26926 15.7307L4.66343 16.2477L4.91426 16.8518L5.00128 17.4968L4.91426 18.1469L4.66343 18.7509L4.26926 19.2679L3.75224 19.6621L3.1482 19.9129L2.5032 20L1.85308 19.9129L1.24904 19.6621L0.732019 19.2679L0.337855 18.7509L0.0870232 18.1469L0 17.4968L0.0870232 16.8518L0.337855 16.2477L0.732019 15.7307L1.24904 15.3314L1.85308 15.0857L2.5032 14.9987Z" />
<path d="M9.99832 14.9987L10.6484 15.0857L11.2525 15.3314L11.7695 15.7307L12.1637 16.2477L12.4145 16.8518L12.5015 17.4968L12.4145 18.1469L12.1637 18.7509L11.7695 19.2679L11.2525 19.6621L10.6484 19.9129L9.99832 20L9.35332 19.9129L8.74928 19.6621L8.23226 19.2679L7.8381 18.7509L7.58726 18.1469L7.50024 17.4968L7.58726 16.8518L7.83298 16.2477L8.23226 15.7307L8.74928 15.3314L9.35332 15.0857L9.99832 14.9987Z" />
</svg>
