<svg width="16" height="16" viewBox="0 0 16 16" xmlns="http://www.w3.org/2000/svg">
<g clip-path="url(#clip0_111_261)">
<path d="M13 0H3C1.34315 0 0 1.34315 0 3V13C0 14.6569 1.34315 16 3 16H13C14.6569 16 16 14.6569 16 13V3C16 1.34315 14.6569 0 13 0Z" />
<path fill-rule="evenodd" clip-rule="evenodd" d="M4 4C4 3.44772 4.44772 3 5 3H12C12.5523 3 13 3.44772 13 4V11C13 11.5523 12.5523 12 12 12C11.4477 12 11 11.5523 11 11V6.41421L4.70711 12.7071C4.31658 13.0976 3.68342 13.0976 3.29289 12.7071C2.90237 12.3166 2.90237 11.6834 3.29289 11.2929L9.58579 5H5C4.44772 5 4 4.55228 4 4Z" fill="#0052CD"/>
</g>
<defs>
<clipPath id="clip0_111_261">
<rect width="16" height="16" />
</clipPath>
</defs>
</svg>
