<svg width="57" height="39" viewBox="0 0 57 39" xmlns="http://www.w3.org/2000/svg">
<path d="M17.5785 9.8V29.5C17.5785 32.2667 16.8785 34.4667 15.4785 36.1C14.0785 37.7333 12.1452 38.55 9.67852 38.55H8.17852C5.54518 38.55 3.54518 37.7833 2.17852 36.25C0.811849 34.6833 0.128516 32.4333 0.128516 29.5V9.85C0.128516 3.51667 2.79518 0.349999 8.12852 0.349999H9.62852C14.9285 0.349999 17.5785 3.5 17.5785 9.8ZM10.6285 29.7V9.3C10.6285 7.66667 10.0452 6.85 8.87852 6.85C7.67852 6.85 7.07852 7.66667 7.07852 9.3V29.7C7.07852 31.1667 7.69518 31.9 8.92852 31.9C10.0618 31.9 10.6285 31.1667 10.6285 29.7ZM19.3215 38V0.799999H29.3715C31.6382 0.799999 33.2715 1.3 34.2715 2.3C35.3048 3.3 35.8215 5.01667 35.8215 7.45V12.4C35.8215 13.8 35.4882 14.9667 34.8215 15.9C34.1882 16.8 33.4715 17.3667 32.6715 17.6C35.1382 18.3 36.3715 20.25 36.3715 23.45V29.65C36.3715 32.55 35.8715 34.6667 34.8715 36C33.8715 37.3333 32.3382 38 30.2715 38H19.3215ZM27.5715 21.35H25.9715V32.1H27.8215C28.4548 32.1 28.8882 31.95 29.1215 31.65C29.3882 31.3167 29.5215 30.65 29.5215 29.65V23.6C29.5215 22.8 29.3715 22.2333 29.0715 21.9C28.8048 21.5333 28.3048 21.35 27.5715 21.35ZM27.5715 6.5H25.9715V15.35H27.4715C28.0715 15.35 28.5215 15.2 28.8215 14.9C29.1215 14.5667 29.2715 13.9833 29.2715 13.15V8.5C29.2715 7.16666 28.7048 6.5 27.5715 6.5ZM49.225 38L44.775 22.25V38H38.125V0.799999H44.775V15.1L49.125 0.799999H55.675L50.425 17.7L56.225 38H49.225Z" />
</svg>
