<svg width="45" height="40" viewBox="0 0 45 40">
<path d="M24.7661 0V20.8758C24.4902 20.8025 24.2071 20.7451 23.9226 20.6991C23.4527 20.6229 22.9757 20.587 22.49 20.587C22.0043 20.587 21.5272 20.6229 21.0574 20.6991C20.7714 20.7451 20.4898 20.8025 20.2139 20.8758V0H24.7661Z"/>
<path d="M24.766 35.9438V39.9988H20.2109V35.9409L22.4885 34.103L24.766 35.9438Z"/>
<path d="M44.9761 20.2104V24.7641H30.4185L28.8911 23.2366C28.2114 22.557 27.4455 22.0009 26.6164 21.5784C26.0272 21.2752 25.4079 21.0381 24.7642 20.8743C24.4883 20.801 24.2052 20.7436 23.9207 20.6976C23.4508 20.6214 22.9738 20.5855 22.4881 20.5855C22.0024 20.5855 21.5253 20.6214 21.0554 20.6976C20.7695 20.7436 20.4879 20.801 20.212 20.8743C19.5682 21.0381 18.946 21.2752 18.3598 21.5784C17.5306 22.0009 16.7662 22.5555 16.0851 23.2366L14.5576 24.7641H0V20.2104H44.9761Z"/>
<path d="M39.9998 8.19621L26.6176 21.5784C26.0284 21.2752 25.4091 21.0381 24.7654 20.8743C24.4895 20.801 24.2064 20.7436 23.9219 20.6976C23.452 20.6214 22.9749 20.5855 22.4893 20.5855C22.0036 20.5855 21.5265 20.6214 21.0566 20.6976L36.7796 4.97461L39.9998 8.19621Z"/>
<path d="M23.9207 20.6991C23.4508 20.6229 22.9737 20.587 22.488 20.587C22.0024 20.587 21.5253 20.6229 21.0554 20.6991C20.7695 20.745 20.4878 20.8025 20.2119 20.8758C19.5682 21.0396 18.946 21.2767 18.3597 21.5799L4.97754 8.19769L8.19914 4.97607L23.9207 20.6991Z"/>
<path d="M40.0004 36.7785L36.7788 40.0001L24.7646 27.9859L24.4513 27.6727C24.4183 27.6396 24.3852 27.6066 24.3478 27.5721C23.2917 26.6223 21.6795 26.6223 20.6233 27.5721C20.5903 27.6051 20.5529 27.6382 20.5198 27.6727L20.2095 27.9831V27.9859L8.19523 40.0001L4.97363 36.7785L16.9878 24.7643H16.9907L17.3011 24.4539C17.9966 23.7585 18.7984 23.234 19.6534 22.8747C19.8359 22.7986 20.0212 22.7296 20.2095 22.6707C21.6852 22.1879 23.2874 22.1879 24.7631 22.6707C24.9514 22.7282 25.1367 22.7986 25.3192 22.8747C26.1756 23.2297 26.9774 23.7556 27.6715 24.4511L27.9847 24.7643L40.0004 36.7785Z"/>
</svg>
