<svg width="16" height="20" viewBox="0 0 16 20"  xmlns="http://www.w3.org/2000/svg">
<path d="M14.3849 2.12778C14.4124 2.15933 14.4524 2.17733 14.4942 2.17733C14.5364 2.17733 14.576 2.15933 14.604 2.12778L15.6151 1.10822C15.6533 1.06489 15.6627 1.00356 15.6391 0.950889C15.6151 0.898667 15.5627 0.864889 15.5051 0.864889H15.1427V0.146222C15.1429 0.0653333 15.0778 0 14.9969 0H13.9918C13.9109 0 13.8456 0.0653333 13.8456 0.146222V0.864889H13.4833C13.4258 0.864889 13.3733 0.898667 13.3498 0.950889C13.326 1.00356 13.3358 1.06489 13.3738 1.10822L14.3849 2.12778Z" />
<path d="M9.53178 9.08511C9.11378 8.61911 8.70089 8.09844 8.32911 7.63C8.15378 7.40867 7.986 7.19756 7.82911 7.00578L7.81756 6.99178C8.04733 6.33733 8.17867 5.80178 8.208 5.39956C8.28244 4.37489 8.168 3.71489 7.85844 3.38222C7.64933 3.15711 7.33533 3.07867 7.04 3.178C6.82844 3.24889 6.542 3.43889 6.37822 3.94067C6.13422 4.68867 6.25244 6.01333 6.94622 7.10889C6.63667 7.91956 6.20511 8.85111 5.72844 9.738C4.82067 10.0562 4.09711 10.4747 3.57778 10.9822C2.89933 11.6444 2.62356 12.3018 2.82089 12.7853C2.94244 13.0849 3.22356 13.2636 3.57267 13.2636C3.81578 13.2636 4.07867 13.1758 4.33311 13.01C4.97556 12.59 5.81444 11.1907 6.26444 10.3798C7.19533 10.0891 8.11444 9.97022 8.58156 9.92511C8.79289 9.90467 9.00267 9.88844 9.20467 9.87711C10.0222 10.7404 10.6909 11.1958 11.3069 11.3093C11.4309 11.3324 11.5549 11.344 11.676 11.344C12.178 11.344 12.5929 11.1438 12.7864 10.8084C12.9324 10.5551 12.9296 10.2596 12.7782 9.99733C12.4364 9.40556 11.4049 9.07978 9.87356 9.07978C9.76333 9.08 9.64956 9.08156 9.53178 9.08511ZM3.90689 12.3589C3.78533 12.4382 3.66044 12.4856 3.57244 12.4856C3.55578 12.4856 3.54444 12.4838 3.538 12.4822C3.52267 12.4047 3.57778 12.0693 4.12111 11.5384C4.37622 11.2891 4.69889 11.0616 5.08089 10.8602C4.59889 11.6358 4.16511 12.1902 3.90689 12.3589ZM7.11733 4.18222C7.174 4.00867 7.24422 3.93022 7.288 3.91556C7.28911 3.91533 7.29 3.91489 7.29089 3.91467C7.33311 3.96222 7.51267 4.234 7.43222 5.34378C7.41822 5.53733 7.37111 5.782 7.29178 6.07267C7.03222 5.40422 6.96089 4.66156 7.11733 4.18222ZM8.50644 9.15133C8.09267 9.19111 7.46244 9.27311 6.75933 9.43956C7.032 8.89511 7.28444 8.34333 7.49533 7.832C7.56844 7.92356 7.64333 8.01756 7.71933 8.11378C7.97378 8.43444 8.25956 8.79489 8.55578 9.14689L8.50644 9.15133ZM12.104 10.3864C12.1156 10.4064 12.1153 10.4144 12.1124 10.4198C12.0798 10.4764 11.932 10.5664 11.6749 10.5664C11.6031 10.5664 11.5267 10.5591 11.4478 10.5444C11.1269 10.4851 10.7527 10.2633 10.3067 9.86778C11.5169 9.92556 12.006 10.2173 12.104 10.3864Z" />
<path d="M11.18 0H1.11778C0.501111 0 0 0.499778 0 1.118V18.882C0 19.4996 0.501111 20 1.11778 20H14.534C15.152 20 15.6518 19.4996 15.6518 18.882V4.472L11.18 0ZM11.18 1.58067L14.0713 4.472H11.18V1.58067ZM14.5342 18.882H1.11778V1.118H10.062V4.472C10.062 5.08956 10.562 5.59 11.1798 5.59H14.534L14.5342 18.882Z" />
<path d="M5.97889 14.3011C5.88756 14.2204 5.778 14.1618 5.65356 14.1273C5.53067 14.0922 5.35467 14.0744 5.13044 14.0744H4.38622C4.24467 14.0744 4.138 14.1069 4.06889 14.1716C3.99911 14.2369 3.96333 14.3427 3.96333 14.4856V16.6927C3.96333 16.8211 3.99511 16.9211 4.05778 16.9904C4.12156 17.0616 4.20644 17.0978 4.31 17.0978C4.40911 17.0978 4.49267 17.0616 4.558 16.99C4.622 16.9198 4.65467 16.8184 4.65467 16.6889V15.934H5.13044C5.49778 15.934 5.78 15.8538 5.96867 15.6953C6.16067 15.5349 6.25822 15.2976 6.25822 14.9898C6.25822 14.8464 6.23467 14.7153 6.18778 14.5998C6.14067 14.4827 6.07044 14.3824 5.97889 14.3011ZM5.498 15.224C5.45644 15.28 5.39711 15.3193 5.31622 15.3447C5.23022 15.3713 5.12067 15.3851 4.99 15.3851H4.65489V14.6211H4.99C5.292 14.6211 5.41444 14.6813 5.46311 14.7304C5.528 14.7998 5.55956 14.8884 5.55956 15.0011C5.55956 15.094 5.53889 15.1689 5.498 15.224Z" />
<path d="M8.728 14.3478C8.60733 14.2422 8.47089 14.1691 8.32244 14.1307C8.178 14.0933 8.00289 14.0742 7.80267 14.0742H7.04689C6.90711 14.0742 6.80267 14.1078 6.73622 14.1744C6.66978 14.2411 6.636 14.3456 6.636 14.4851V16.5847C6.636 16.6831 6.64467 16.762 6.66244 16.8253C6.68267 16.8973 6.72622 16.9536 6.79178 16.9924C6.85422 17.0302 6.94178 17.0484 7.05867 17.0484H7.81444C7.94822 17.0484 8.07044 17.0398 8.17778 17.0224C8.28711 17.0047 8.39089 16.9736 8.486 16.9302C8.582 16.8864 8.67133 16.8273 8.75244 16.7544C8.854 16.6611 8.93867 16.5538 9.004 16.4349C9.06867 16.3164 9.11733 16.182 9.148 16.0358C9.17867 15.8909 9.19422 15.7284 9.19422 15.5536C9.194 15.0184 9.03689 14.6127 8.728 14.3478ZM8.22289 16.356C8.18533 16.3887 8.14022 16.4149 8.08867 16.4333C8.03467 16.4524 7.98222 16.4647 7.93222 16.4693C7.87956 16.4742 7.80511 16.4769 7.71089 16.4769H7.32689V14.6444H7.65422C7.82556 14.6444 7.97244 14.6631 8.09111 14.6998C8.202 14.7336 8.29756 14.8156 8.37511 14.944C8.45467 15.0753 8.49511 15.2791 8.49511 15.55C8.49511 15.932 8.40378 16.2029 8.22289 16.356Z" />
<path d="M11.3591 14.0744H9.992C9.90089 14.0744 9.82711 14.088 9.76667 14.1158C9.702 14.1451 9.65378 14.1929 9.62311 14.258C9.59467 14.3189 9.58089 14.3933 9.58089 14.4856V16.6887C9.58089 16.8213 9.61333 16.9233 9.67667 16.9918C9.74133 17.062 9.82578 17.0978 9.92756 17.0978C10.0273 17.0978 10.1111 17.0627 10.1764 16.9931C10.24 16.9244 10.2722 16.822 10.2722 16.6887V15.8009H11.1718C11.2724 15.8009 11.3513 15.7767 11.4058 15.7284C11.4624 15.6784 11.4911 15.6113 11.4911 15.5287C11.4911 15.4462 11.4631 15.3789 11.4076 15.3287C11.3536 15.2793 11.2742 15.2544 11.1718 15.2544H10.2722V14.6331H11.3593C11.4658 14.6331 11.5478 14.6076 11.6031 14.5569C11.6598 14.5053 11.6884 14.4367 11.6884 14.3529C11.6884 14.2709 11.6598 14.2029 11.6029 14.1504C11.5469 14.0998 11.4651 14.0744 11.3591 14.0744Z" />
</svg>
