<svg width="22" height="21" viewBox="0 0 22 21">
<path  fill-rule="evenodd" clip-rule="evenodd" d="M2.00488 9.35862C2.00488 5.13977 5.42493 1.71973 9.64377 1.71973C13.8626 1.71973 17.2827 5.13977 17.2827 9.35862C17.2827 13.5775 13.8626 16.9975 9.64377 16.9975C5.42493 16.9975 2.00488 13.5775 2.00488 9.35862ZM9.64377 0.219727C4.5965 0.219727 0.504883 4.31135 0.504883 9.35862C0.504883 14.4059 4.5965 18.4975 9.64377 18.4975C11.8974 18.4975 13.9606 17.6818 15.554 16.3294L20.2245 20.9999L21.2852 19.9393L16.6146 15.2688C17.9669 13.6753 18.7827 11.6122 18.7827 9.35862C18.7827 4.31135 14.691 0.219727 9.64377 0.219727Z" />
</svg>
