<svg width="48" height="40" viewBox="0 0 48 40" xmlns="http://www.w3.org/2000/svg">
<path fill-rule="evenodd" clip-rule="evenodd" d="M3.2865 17.2519C16.1687 11.6248 24.7446 7.88577 29.051 6.07179C41.3075 0.925992 43.884 0.0375084 45.5403 0.000488281C45.9083 0.000488281 46.7181 0.074529 47.2702 0.51877C47.7119 0.888971 47.8223 1.37024 47.8959 1.74044C47.9695 2.11064 48.0431 2.88806 47.9695 3.48038C47.307 10.5142 44.4361 27.5805 42.9638 35.4287C42.3381 38.7605 41.1235 39.8711 39.9457 39.9822C37.3693 40.2043 35.4185 38.2793 32.9525 36.6504C29.051 34.096 26.8794 32.5041 23.0884 29.9868C18.7084 27.0992 21.5425 25.5074 24.0453 22.9159C24.7078 22.2496 36.0074 11.884 36.2283 10.9585C36.2651 10.8474 36.2651 10.4031 36.0074 10.181C35.7498 9.9589 35.3817 10.0329 35.0873 10.107C34.6824 10.181 28.4989 14.3273 16.4632 22.5087C14.6965 23.7304 13.1138 24.3227 11.6784 24.2857C10.0957 24.2487 7.07756 23.3972 4.79556 22.6568C2.03508 21.7683 -0.173308 21.2871 0.0107243 19.7322C0.121144 18.9178 1.22534 18.1033 3.2865 17.2519Z"  />
</svg>
