<svg width="48" height="48" viewBox="0 0 48 48"  xmlns="http://www.w3.org/2000/svg">
<path fill-rule="evenodd" clip-rule="evenodd" d="M3.37413 3.37456C0 6.74863 0 12.1791 0 23.0401V24.9601C0 35.8211 0 41.2515 3.37413 44.6256C6.74826 47.9997 12.1788 47.9997 23.04 47.9997H24.96C35.8212 47.9997 41.2517 47.9997 44.6259 44.6256C48 41.2515 48 35.8211 48 24.9601V23.0401C48 12.1791 48 6.74863 44.6259 3.37456C41.2517 0.000488281 35.8212 0.000488281 24.96 0.000488281H23.04C12.1788 0.000488281 6.74826 0.000488281 3.37413 3.37456ZM8.1001 14.6018C8.3601 27.0816 14.6 34.5814 25.54 34.5814H26.1602V27.4416C30.1802 27.8416 33.2199 30.7815 34.4399 34.5814H40.1201C38.5601 28.9016 34.4599 25.7616 31.8999 24.5616C34.4599 23.0817 38.0599 19.4817 38.9199 14.6018H33.7598C32.6398 18.5617 29.3202 22.1617 26.1602 22.5017V14.6018H21V28.4416C17.8 27.6416 13.7601 23.7616 13.5801 14.6018H8.1001Z" />
</svg>
