<svg width="16" height="12" viewBox="0 0 16 12" fill="none" xmlns="http://www.w3.org/2000/svg">
<path fill-rule="evenodd" clip-rule="evenodd" d="M14.2 0.699903C14.9 0.899903 15.4 1.3999 15.6 2.0999C16 3.3999 16 5.9999 16 5.9999C16 5.9999 16 8.5999 15.7 9.8999C15.5 10.5999 15 11.0999 14.3 11.2999C13 11.5999 8 11.5999 8 11.5999C8 11.5999 2.9 11.5999 1.7 11.2999C1 11.0999 0.5 10.5999 0.3 9.8999C1.78814e-07 8.5999 0 5.9999 0 5.9999C0 5.9999 -1.93715e-07 3.3999 0.2 2.0999C0.4 1.3999 0.90001 0.899903 1.60001 0.699903C2.9 0.399903 7.9 0.399902 7.9 0.399902C7.9 0.399902 13 0.399903 14.2 0.699903Z" fill="#0052CD"/>
<path d="M6.5 8.4999V3.4999L10.5 5.9999L6.5 8.4999Z" fill="#D9D9D9"/>
</svg>