<svg width="125" height="90" viewBox="0 0 125 90" xmlns="http://www.w3.org/2000/svg">
<path fill-rule="evenodd" clip-rule="evenodd" d="M123.75 19.4133C123.75 19.4133 122.527 10.5956 118.781 6.71332C114.027 1.61505 108.699 1.59123 106.258 1.29541C88.7656 3.55001e-07 62.5273 0 62.5273 0H62.4727C62.4727 0 36.2344 3.55001e-07 18.7422 1.29541C16.2969 1.59123 10.9727 1.61505 6.21484 6.71332C2.46875 10.5966 1.25 19.4133 1.25 19.4133C1.25 19.4133 0 29.7707 0 40.1231V49.8322C0 60.1886 1.25 70.542 1.25 70.542C1.25 70.542 2.46875 79.3597 6.21484 83.242C10.9727 88.3403 17.2187 88.1805 20 88.7125C30 89.6963 62.5 90 62.5 90C62.5 90 88.7656 89.9603 106.258 88.6649C108.699 88.3651 114.027 88.3413 118.781 83.243C122.527 79.3597 123.75 70.543 123.75 70.543C123.75 70.543 125 60.1896 125 49.8322V40.1231C125 29.7707 123.75 19.4133 123.75 19.4133ZM49.5938 61.5972L49.5898 25.6442L83.3633 43.6827L49.5938 61.5972Z"/>
</svg>
